<?xml version="1.0" encoding="UTF-8"?>
<svg id="Calque_1" xmlns="http://www.w3.org/2000/svg" version="1.1" viewBox="0 0 509.5 957.9">
  <!-- Generator: Adobe Illustrator 29.3.1, SVG Export Plug-In . SVG Version: 2.1.0 Build 151)  -->
  <defs>
    <style>
      .st0 {
        fill: #264f0b;
      }

      .st1 {
        fill: #fefdf8;
      }

      .st2 {
        fill: #fe6c23;
      }
    </style>
  </defs>
  <rect class="st0" x="-4.2" y="-7.1" width="518.2" height="965"/>
  <g>
    <path class="st0" d="M514,474.3v3.6c-12.1,7.4-23.9,12.4-35.7,15.8-1.1.3-2.2.6-3.3.9-2.8.8-5.7,1.4-8.5,2-9.4,2-18.8,3.2-28.3,4.1-1.9.2-3.8.4-5.7.5-.7,0-1.3.1-2,.2-2.8.2-5.6.4-8.5.7-.7,0-1.3.1-2,.2-1.4.1-2.7.2-4.1.3l-4.2.3c-.3,0-.5,0-.8,0-.2,0-.3,0-.4,0-.1,0-.2,0-.3,0-.4,0-.8,0-1.2.1-.1,0-.2,0-.3,0-.9,0-1.9.1-2.8.2-1,0-1.9.2-2.9.3-3.9.4-7.8.8-11.8,1.2-2.2.3-4.4.5-6.7.9-.7.1-1.5.2-2.2.3-4,.6-8.1,1.3-12.3,2.1-5.5,1.1-10.7,2.6-15.6,4.4-.9.3-1.8.7-2.7,1h0c-2.9,1.1-5.7,2.4-8.5,3.6h0c-11.4,5.3-22,11.5-33.8,16.6-1.9.8-3.8,1.6-5.8,2.4-.5.2-1.1.4-1.7.6-.6.2-1.3.5-1.9.7-5.6,1.9-11.3,3.5-17,4.8-.5.1-1.1.2-1.6.4-1.8.4-3.7.8-5.5,1.1-1.4.3-2.8.5-4.2.8-2.2.4-4.5.8-6.7,1.2-.6.1-1.2.2-1.8.3-7.4,1.2-14.8,2.4-22.1,3.9-.9.2-1.8.4-2.8.6-.7.1-1.4.3-2.1.4-2.2.5-4.5,1-6.7,1.6h0c-6.5,1.6-12.9,3.5-19.3,5.6-1.7.6-3.4,1.1-5.1,1.7-.5.2-1.1.4-1.6.6-6.3,2.1-12.5,4.4-18.7,6.7-.5.2-1,.4-1.5.6-3.5,1.3-7,2.6-10.5,3.9-.8.3-1.7.6-2.5.9-8.8,3.2-17.7,6.3-26.7,9-.9.3-1.8.5-2.7.8-2.7.8-5.4,1.5-8.1,2.2,0,0,0,0,0,0-11.2,2.9-22.5,5-33.9,6.8-2,.3-4,.6-6,.9h0c-.6,0-1.3.2-1.9.3-5,.7-10,1.4-15,1.9-.7,0-1.4.2-2.1.2-.6,0-1.2.1-1.8.2-.7,0-1.3.1-2,.2-6.9.8-13.8,1.5-20.7,2.3-2.5.3-5.1.5-7.6.8-1.8.2-3.7.4-5.5.6-.8.1-1.7.2-2.5.3-.1,0-.2,0-.4,0-1.4.2-2.9.3-4.3.5-.5,0-1.1.1-1.7.2h0c-.8.1-1.7.2-2.5.3-.5,0-1.1.1-1.6.2-1.8.2-3.6.4-5.4.7-3.8.5-7.6,1-11.4,1.6-2.2.3-4.5.7-6.7,1.1-.9.1-1.7.3-2.6.4-.4,0-.8.1-1.3.2v-3.4c.2,0,.5,0,.7-.1.9-.1,1.7-.3,2.6-.4,2.2-.4,4.5-.7,6.7-1.1,4.1-.6,8.1-1.2,12.2-1.7,1.8-.2,3.6-.5,5.5-.7.6,0,1.1-.1,1.7-.2.9,0,1.7-.2,2.6-.3.6,0,1.1-.1,1.7-.2,2.3-.2,4.6-.5,6.9-.7.8,0,1.5-.2,2.3-.2h0c.6,0,1.1-.1,1.7-.2.6,0,1.2-.1,1.7-.2,1.5-.2,3-.3,4.6-.5.6,0,1.1-.1,1.7-.2,7.7-.8,15.3-1.5,23-2.4.6,0,1.3-.1,1.9-.2.5,0,1-.1,1.5-.2.6,0,1.3-.1,1.9-.2,5.1-.6,10.1-1.2,15.2-2,.7,0,1.3-.2,2-.3,2-.3,4-.6,5.9-.9,7.2-1.1,14.4-2.5,21.5-4,4.8-1.1,9.4-2.2,14.1-3.5,2.8-.8,5.6-1.6,8.4-2.5.9-.3,1.8-.5,2.6-.8h0c8.8-2.8,17.5-5.9,26.2-9,.8-.3,1.5-.6,2.3-.8,2.6-.9,5.2-1.9,7.8-2.8.5-.2,1-.4,1.5-.5,6.2-2.2,12.4-4.5,18.7-6.6.5-.2,1.1-.4,1.6-.5,1.7-.6,3.4-1.1,5.1-1.7,7.1-2.3,14.3-4.4,21.6-6.1,2.2-.5,4.4-1,6.6-1.5.7-.1,1.4-.3,2.1-.4.6-.1,1.1-.2,1.7-.3,7.7-1.5,15.4-2.7,23.2-4,.7-.1,1.3-.2,2-.3,2-.4,4-.7,6-1.1,1.1-.2,2.2-.4,3.4-.6,1.8-.4,3.7-.8,5.5-1.2.5-.1,1.1-.2,1.6-.4,3.8-.9,7.5-1.9,11.2-3,2.7-.8,5.3-1.8,7.8-2.8.6-.2,1.2-.5,1.8-.7,2-.8,3.9-1.6,5.8-2.5,12.3-5.5,23.6-12,35.8-17.3,2.8-1.2,5.7-2.4,8.7-3.4.9-.3,1.8-.6,2.8-1,4.3-1.4,8.8-2.6,13.6-3.5,4.5-.8,8.9-1.6,13.3-2.2.7-.1,1.5-.2,2.2-.3,2.2-.3,4.4-.6,6.6-.8,3.7-.4,7.3-.8,10.9-1.1,1.9-.2,3.8-.4,5.7-.5.6,0,1.2,0,1.8-.1,6.9-.6,13.6-1,20.2-1.6.6,0,1.3-.1,1.9-.2,1.9-.2,3.8-.3,5.7-.5,9.8-1,19.4-2.3,29.1-4.5,2.9-.7,5.8-1.4,8.7-2.2,1.1-.3,2.3-.7,3.4-1,11-3.5,22.2-8.4,33.8-15.6Z"/>
    <g>
      <path class="st2" d="M514,471v486.9H-4.2v-358c.2,0,.4,0,.6,0,.9-.1,1.7-.3,2.6-.4,2.2-.3,4.5-.7,6.7-1,4.1-.6,8.3-1.1,12.4-1.6,1.8-.2,3.7-.4,5.5-.6.5,0,1.1-.1,1.7-.2.9,0,1.7-.2,2.6-.3.6,0,1.2-.1,1.7-.2,2.4-.2,4.8-.5,7.2-.8,1.8-.2,3.5-.4,5.3-.5,1.5-.1,3-.3,4.5-.5.6,0,1.2-.1,1.8-.2,7.8-.8,15.5-1.6,23.3-2.5.6,0,1.2-.1,1.9-.2.5,0,1-.1,1.5-.2.6,0,1.3-.2,1.9-.2,5.1-.6,10.2-1.3,15.3-2.1.7-.1,1.3-.2,2-.3,2-.3,4-.6,5.9-1,5.4-.9,10.7-2,16-3.1,7-1.5,13.8-3.4,20.6-5.4,2.9-.9,5.7-1.8,8.5-2.7h0c.9-.3,1.7-.6,2.6-.9h0c8.7-2.9,17.2-6,25.8-9.1.7-.3,1.5-.5,2.2-.8,2-.7,4.1-1.5,6.2-2.2.5-.2,1-.4,1.5-.6,6.2-2.2,12.5-4.4,18.7-6.5.5-.2,1.1-.4,1.6-.5,1.7-.5,3.4-1.1,5.1-1.6.4-.1.7-.2,1.1-.3,1.1-.3,2.2-.7,3.4-1,6-1.7,12.1-3.3,18.2-4.7h0c1.5-.3,3-.6,4.6-.9.6-.1,1.3-.2,1.9-.4.7-.1,1.4-.3,2-.4,8.2-1.5,16.5-2.7,24.8-4.2.7-.1,1.3-.2,2-.4,2-.4,4-.8,5.9-1.2,1.1-.2,2.2-.5,3.2-.7,1.8-.4,3.7-.9,5.5-1.3.5-.1,1-.3,1.6-.4,2-.5,4-1.1,5.9-1.7,4.6-1.5,9-3.1,13.3-5,.6-.3,1.3-.6,1.9-.8,2-.9,3.9-1.8,5.8-2.7,12.4-5.9,24.1-12.6,37.2-17.5,2.8-1,5.6-2,8.5-2.8.9-.2,1.8-.5,2.7-.7,2.3-.6,4.6-1.1,7-1.6,6.5-1.2,12.8-2.1,18.9-2.9.7,0,1.4-.2,2.1-.2,2.2-.3,4.4-.5,6.5-.7,3.6-.4,7.2-.7,10.7-1,1.9-.2,3.8-.3,5.7-.5.6,0,1.2,0,1.7-.1,6.9-.6,13.6-1,20.3-1.7.6,0,1.3-.1,1.9-.2,1.9-.2,3.8-.4,5.8-.6,9.9-1.1,19.8-2.8,29.6-5.4,2.9-.8,5.9-1.7,8.9-2.7,1.2-.4,2.4-.8,3.5-1.2,5.5-2,11.2-4.4,16.8-7.4,5.2-2.7,10.5-5.8,15.9-9.4Z"/>
      <path class="st2" d="M408.9,503.2c.3,0,.7,0,1,0h.2c-.4,0-.8,0-1.2,0ZM403,503.5l.8-2.8c-3.6.3-7.2.7-10.9,1.1-.5.9-1,1.9-1.6,2.9-2.2.2-4.4.5-6.6.8,0,0,0,0,0,.1.1,0,.3,0,.4,0,.7,0,1.4-.2,2.1-.2,1.4-.2,2.8-.3,4.1-.5.8,0,1.6-.2,2.3-.2,2.8-.3,5.8-.6,9.4-.9.4,0,.8,0,1.3-.1h.7c.3,0,.6,0,.9-.1,1,0,1.9-.2,2.8-.2v-.2c-1.8.2-3.7.3-5.6.5ZM281,535h-.1c-1.3.4-2.7.7-4.3,1.1-.4,0-.8.2-1.2.3-.6.1-1.2.2-1.7.4-.5.1-1,.2-1.4.3-1.4.3-2.8.6-4.2.8-.3,1.2-.6,2.5-1,3.6-.1.3-.2.7-.4,1-.1.4-.3.8-.5,1.1-.4.6-.7,1.1-1,1.7.2,0,.3,0,.5,0,.6-.1,1.2-.2,1.9-.3h.2c1.4-.3,2.7-.5,4.1-.8.6-.1,1.3-.2,1.9-.4.7-.1,1.4-.3,2.1-.5.4,0,.8-.2,1.2-.3,1.6-.4,3-.7,4.4-1l.3-2.3.2-1.3.4-3.6c-.4.1-.8.2-1.2.3ZM513.6,467.2c-10.7,7.4-21.5,13-32.9,17.2l-.6.2c-1.1.4-2.2.8-3.4,1.2-2.8.9-5.7,1.8-8.7,2.6-8.3,2.2-17.2,3.9-27.8,5.1-.5,0-.9.1-1.4.2-1.5.2-2.9.3-4.4.5-.4,0-.9.1-1.3.1h-.5s-1.4.2-1.4.2c-5.2.5-10.5.9-16,1.3l-3,.2h-1.2c-.2.1-.3.1-.5.1-.4,0-.7,0-1.1,0h-.2c-1.5.1-2.9.2-4.4.4-.2,0-.4,0-.6,0h-.7c-3.2.3-6,.6-8.5.8-.8,0-1.5.1-2.2.2-1.3.1-2.7.3-4.1.4-.7,0-1.4.2-2.1.2,0,0-.2,0-.3,0-.7,0-1.5.2-2.2.3-6.7.8-13,1.8-19.1,2.9-1,.2-2.1.4-3.1.6-.9.2-1.7.4-2.6.6-.5.1-1,.3-1.6.4-.9.2-1.8.5-2.8.8-1.4.4-2.8.9-4.3,1.3-1.5.5-3,1-4.5,1.6-9.3,3.4-17.9,7.8-26.3,12-3,1.5-6.1,3.1-9.2,4.6-.7.3-1.3.7-2,1-1.2.6-2.5,1.2-3.7,1.7-.7.3-1.3.6-2,.9-.6.3-1.2.5-1.9.8-4.5,1.9-8.8,3.5-13,4.9-1.5.5-3,.9-4.5,1.3-.4.1-.8.2-1.3.4,0,0-.2,0-.2,0-.4.1-.8.2-1.2.3h-.1c-1.3.4-2.7.7-4.3,1.1-.4,0-.8.2-1.2.3-.6.1-1.2.2-1.7.4-.5.1-1,.2-1.4.3-1.4.3-2.8.6-4.2.8-.6.1-1.1.2-1.7.3h-.2s0,0,0,0c-.6.1-1.2.2-1.8.3-3.9.7-8,1.4-11.9,2-3.5.6-7.1,1.2-10.6,1.8-.7.1-1.3.2-2,.4,0,0-.2,0-.3,0-.6.1-1.3.2-1.9.3l-2.1.4c-.7.1-1.4.3-2.1.4-.7.2-1.4.3-2.2.5h-.4c-4.1,1-8.3,2-12.6,3.2-1.8.5-3.5,1-5.4,1.5h-.5c-1,.4-2,.7-3,1h-.4c-.3.2-.6.3-.9.4h-.2c-1.7.6-3.4,1.1-5.2,1.7h-.3c0,0-1.3.5-1.3.5,0,0-.2,0-.3.1-6.7,2.2-13.1,4.5-18.5,6.4-.2,0-.5.2-.7.3-.3.1-.6.2-.9.3-.3.1-.6.2-.9.3-.9.3-1.8.7-2.7,1-.6.2-1.3.5-1.9.7-.2,0-.4.1-.6.2l-.5.2c-.5.2-1.1.4-1.6.6h-.3c-7,2.6-14.2,5.3-21.4,7.7l-2.4.8c-.4.1-.7.2-1.1.4l-.5.2c-.7.2-1.4.4-2,.7l-.5.2c-1.5.5-2.8.9-4.2,1.3-1.5.5-2.9.9-4.3,1.3-7.2,2.2-13.8,3.9-20.3,5.3-4.6,1-9.3,2-14.3,2.8-.5,0-1,.2-1.6.3-1.4.2-2.8.5-4.2.7-.6,0-1.1.2-1.7.3-.1,0-.2,0-.3,0-.5,0-.9.1-1.4.2h-.2c-4.4.7-8.9,1.3-13.8,1.9-.5,0-.9.1-1.4.2h-.4s-1.5.2-1.5.2c-.3,0-.5,0-.8,0h-1c0,.1,0,.1,0,.1-.5,0-1,.1-1.5.2-7.7.9-15.5,1.7-23.1,2.5h0c-.6,0-1.1.1-1.6.2h-.1s-4.1.4-4.1.4l-1.7.2-3.4.3h-.7c-.4.1-.8.2-1.1.2-1.6.2-3.2.3-4.8.5-.4,0-.8,0-1.2.1h-.6c0,0-2.8.4-2.8.4h-1c-.2.1-.5.2-.7.2-.3,0-.7,0-1,.1-1.5.2-3.1.3-4.6.5-.3,0-.6,0-.9.1-4.2.5-8.4,1-12.5,1.6-2.1.3-4.3.6-6.8,1-.7.1-1.4.2-2.1.3h-.5c0,0,0,0,0,0v6.9c.4,0,.7-.1,1.1-.2h.5c.7-.2,1.4-.3,2.1-.4,2.4-.4,4.6-.7,6.7-1,3.8-.5,7.7-1,11.6-1.5.2,0,.5,0,.7,0,1.6-.2,3.1-.4,4.7-.5.3,0,.5,0,.8,0,.3,0,.5,0,.8,0,.3,0,.5,0,.8,0l1.7-.2,1.7-.2h1c1.3-.2,2.7-.4,4-.5.8-.1,1.7-.2,2.5-.3.2,0,.4,0,.7,0l4-.4,6-.6c.5,0,1,0,1.6-.2h.1c.1,0,.2,0,.3,0,6.9-.7,14-1.4,21-2.2.6,0,1.3-.1,1.9-.2,0,0,0,0,.1,0,.5,0,1-.1,1.5-.2h.2s.7-.1.7-.1c.3,0,.6,0,.9-.1h.5c0,0,1.4-.2,1.4-.2,4.8-.6,9.3-1.2,13.6-1.9.6,0,1.1-.2,1.7-.3h.2s0,0,0,0c.6,0,1.2-.2,1.8-.3,1.4-.2,2.8-.4,4.2-.7.6-.1,1.2-.2,1.8-.3,5.7-1,11-2,16.2-3.2,5.4-1.2,10.9-2.6,16.7-4.3,1.4-.4,2.8-.8,4.2-1.2,1.4-.4,2.8-.8,4.2-1.3.9-.3,1.8-.6,2.7-.9.4-.1.8-.2,1.1-.4l1-.3c.6-.2,1.1-.4,1.7-.6h.4c7.5-2.6,15.1-5.4,22.4-8,.8-.3,1.6-.6,2.4-.9.2,0,.5-.2.7-.3h.3c.6-.3,1.1-.5,1.7-.7l.5-.2c2-.7,4-1.4,6-2.1,0,0,.1,0,.2,0h0c.4-.2.8-.3,1.3-.5,0,0,.1,0,.2,0,5.4-1.9,11.8-4.2,18.5-6.4,0,0,.1,0,.2,0l1.5-.5h.1c1.6-.6,3.3-1.1,5-1.6,0,0,0,0,0,0h.2c.3-.2.6-.2.9-.3h.4c.8-.4,1.7-.6,2.5-.9h.5c5.4-1.7,10.5-3,15.4-4.1.8-.2,1.5-.4,2.2-.5h.4c1.4-.4,2.7-.7,4-.9.2,0,.3,0,.5-.1l1.5-.3h.6c.6-.2,1.2-.3,1.8-.5,4.2-.8,8.6-1.5,12.8-2.2,3.2-.5,6.4-1.1,9.6-1.6.6,0,1.2-.2,1.8-.3.2,0,.3,0,.5,0,.6-.1,1.2-.2,1.9-.3h.2c1.4-.3,2.7-.5,4.1-.8.6-.1,1.3-.2,1.9-.4.7-.1,1.4-.3,2.1-.5.4,0,.8-.2,1.2-.3,1.6-.4,3-.7,4.4-1,.4-.1.9-.2,1.3-.3h.1c0,0,.2,0,.2,0,.4-.1.8-.2,1.2-.3,2.1-.6,4.1-1.1,6.1-1.8,3.9-1.2,7.7-2.6,11.8-4.3.6-.2,1.2-.5,1.8-.7,0,0,0,0,0,0,.7-.3,1.3-.6,1.9-.9,1.3-.6,2.6-1.1,3.8-1.7.7-.3,1.4-.7,2.1-1,3.8-1.8,7.7-3.8,11.4-5.6,6.9-3.5,14-7.1,21.3-10.1,1.4-.6,2.8-1.1,4.2-1.6,1.3-.5,2.7-1,4.1-1.4.9-.3,1.8-.6,2.6-.8.5-.2,1.1-.3,1.6-.5.8-.2,1.7-.5,2.6-.7,1-.3,2.1-.5,3.1-.8,0,0,.2,0,.2,0,1.1-.3,2.3-.5,3.4-.7,5.2-1,10.5-1.8,16.1-2.6.7,0,1.5-.2,2.2-.3.1,0,.3,0,.4,0,.7,0,1.4-.2,2.1-.2,1.4-.2,2.8-.3,4.1-.5.8,0,1.6-.2,2.3-.2,2.8-.3,5.8-.6,9.4-.9.4,0,.8,0,1.3-.1h.7c.3,0,.6,0,.9-.1,1,0,1.9-.2,2.8-.2,0,0,.2,0,.3,0,.3,0,.7,0,1,0h.2c.1,0,.2,0,.3,0,.1,0,.3,0,.4,0,.3,0,.5,0,.8,0l4.2-.3c1.4-.1,2.8-.2,4.1-.3.7,0,1.3-.1,2-.2,2.9-.2,5.7-.5,8.5-.7.5,0,1,0,1.5-.1h.5s1.4-.2,1.4-.2c1.5-.1,2.9-.3,4.4-.5.5,0,1-.1,1.4-.2,5.7-.7,11-1.4,15.9-2.3,0,0,0,0,.1,0,5-.9,9.6-1.9,14.1-3.1,3.1-.8,6.2-1.8,9.1-2.7,1.1-.4,2.1-.7,3.1-1.1l.6-.2c10.9-4,21.3-9.2,31.5-15.9v-8.2c-.1.1-.3.2-.5.3Z"/>
    </g>
    <path class="st1" d="M478.9,492.5c11.4-3.7,23-8.9,35.1-16.6v3.7c-12.5,7.9-24.8,13.2-37,16.8-1.1.3-2.2.6-3.4.9-2.8.8-5.7,1.5-8.5,2.1-9.2,2-18.5,3.2-27.8,4.2-1.9.2-3.8.4-5.8.5-.7,0-1.4.1-2,.2-6.6.6-13.2,1-20,1.6-.6,0-1.2,0-1.8.1-1.9.1-3.8.3-5.7.5-4.2.4-8.4.8-12.6,1.3-2.2.2-4.5.5-6.7.8-.8.1-1.5.2-2.3.3-4.5.7-9.2,1.4-13.8,2.3-4.9,1-9.5,2.3-13.9,3.8h0c-.9.3-1.7.6-2.6.9h0c-2.8,1-5.5,2.2-8.2,3.4-11.2,5-21.6,11-32.8,16.2-1.9.9-3.9,1.7-5.8,2.5-.5.2-1.1.5-1.6.7-1.9.7-3.8,1.5-5.7,2.1-4.4,1.5-8.8,2.8-13.3,3.9-.6.1-1.1.3-1.7.4-1.8.4-3.7.8-5.5,1.2-1.8.4-3.6.7-5.4,1.1-2.3.4-4.6.9-6.9,1.2-.5,0-1.1.2-1.6.3h0c-8.2,1.4-16.5,2.7-24.7,4.3-.2,0-.3,0-.5,0-.5.1-1,.2-1.5.3-2.2.5-4.5,1-6.7,1.5-6,1.4-11.8,3-17.6,4.8-1.8.5-3.5,1.1-5.2,1.6-.5.2-1.1.4-1.6.5-6.3,2.1-12.5,4.3-18.8,6.5-.5.2-1.1.4-1.6.6-4,1.5-8,2.9-12,4.4h0c-.9.3-1.8.6-2.7,1-8.9,3.3-17.9,6.5-27.1,9.3h0c-.9.3-1.9.6-2.8.9-2.6.8-5.3,1.6-7.9,2.3-1.3.4-2.7.7-4,1.1-9.7,2.5-19.4,4.4-29.2,6.1-2,.3-4,.7-6,1-.6.1-1.2.2-1.9.3-4.9.8-9.9,1.4-14.8,2-.7,0-1.3.2-2,.2-1.2.1-2.4.3-3.6.4-4.5.5-9,1-13.5,1.5h0c-7.2.8-14.4,1.5-21.6,2.3-.8,0-1.5.2-2.3.2-1.1.1-2.2.2-3.2.4-.5,0-1,.1-1.6.2-.8.1-1.6.2-2.4.3-.5,0-1,.1-1.6.2-1.8.2-3.5.4-5.3.6-3.7.5-7.3.9-10.9,1.4-2.2.3-4.5.6-6.7,1-.9.1-1.7.3-2.6.4-.6,0-1.2.2-1.7.3v-3.5c.4,0,.8-.1,1.2-.2.9-.1,1.7-.3,2.6-.4,2.2-.3,4.5-.6,6.7-.9,3.8-.5,7.6-1,11.5-1.4,1.8-.2,3.6-.4,5.4-.6.5,0,1.1-.1,1.6-.2.8-.1,1.7-.2,2.5-.3.6,0,1.1-.1,1.7-.2,1.4-.2,2.9-.3,4.3-.4.1,0,.3,0,.4,0,.8,0,1.7-.2,2.5-.3,1.9-.2,3.8-.4,5.7-.6,2.5-.2,5-.5,7.6-.8,6.8-.7,13.6-1.4,20.4-2.2.7,0,1.4-.2,2-.2.6,0,1.2-.1,1.8-.2h0c.7,0,1.4-.2,2.1-.3,5-.6,10-1.3,15-2.1.7,0,1.3-.2,2-.3h0c2-.3,4-.6,6-1,5.5-1,11.1-2,16.6-3.2,6.1-1.3,12.1-2.9,18.1-4.7,2.8-.8,5.6-1.7,8.4-2.6.9-.3,1.8-.6,2.8-.9,9-2.9,17.9-6.1,26.8-9.4.8-.3,1.6-.6,2.4-.9,3.1-1.1,6.1-2.2,9.2-3.3h0c.5-.2,1-.4,1.5-.5,6.2-2.2,12.4-4.4,18.7-6.4.5-.2,1.1-.4,1.6-.5,1.7-.6,3.4-1.1,5.1-1.6,6.5-2,13.1-3.8,19.8-5.3,2.2-.5,4.4-1,6.6-1.4h0c.1,0,.3,0,.4,0,.5-.1,1.1-.2,1.6-.3,8.2-1.6,16.5-2.8,24.8-4.2.6-.1,1.2-.2,1.8-.3,2.2-.4,4.5-.8,6.7-1.2,1.4-.3,2.7-.6,4.1-.8,1.8-.4,3.7-.8,5.5-1.3.5-.1,1.1-.3,1.6-.4,2.5-.6,5-1.3,7.4-2.1,4-1.3,7.9-2.7,11.7-4.3.6-.2,1.2-.5,1.7-.7,2-.9,3.9-1.7,5.9-2.6,11.7-5.5,22.7-11.8,34.8-16.7h0c2.7-1.1,5.5-2.2,8.3-3.1.9-.3,1.8-.6,2.6-.9,2.4-.8,4.8-1.4,7.3-2,0,0,.2,0,.2,0,1.5-.4,3.1-.7,4.6-1,5.1-1,10-1.7,14.9-2.4.7-.1,1.5-.2,2.2-.3,2.2-.3,4.4-.5,6.6-.8,4-.4,7.8-.8,11.7-1.1,1.9-.2,3.8-.3,5.7-.5.6,0,1.2,0,1.8-.1,6.8-.5,13.5-1,20.1-1.6.7,0,1.3-.1,2-.2,1.9-.2,3.8-.4,5.7-.6,5.8-.6,11.6-1.4,17.3-2.3,0,0,0,0,.1,0,3.7-.6,7.4-1.4,11.2-2.3h0c2.9-.7,5.8-1.4,8.7-2.3h0c1.1-.3,2.3-.7,3.4-1.1Z"/>
    <g>
      <path class="st1" d="M327.5,467.8c0-.6,0-1.3-.2-2-.2-.9-.8-2.5-2.2-3.8,0,0,0-.1,0-.2-1-2.7-3.9-5.6-9.5-5.6s-1,0-1.4,0c-2.1.3-8.2,2.4-10.4,5.4-.4.5-.7,1.1-1,1.7,0,0-.2,0-.3,0-.7-1.4-1.8-2.9-3.4-3.9-1.4-5-3.3-10.8-6.6-16.1.2-.1.3-.3.5-.5,2.6-2.8,3.8-6.9,3.5-12.1,0-.4,0-.8-.2-1.1.2-.5.4-1.1.5-1.9,0,0,.2-.2.3-.3,3.1-2.9,2.6-6.1,2.3-7.3-.5-1.8-1.5-3.1-2.3-4-.2-.2-.5-.6-.5-.7-.7-1.1-1-2.3-1.4-3.9-.2-.9-.5-1.9-.8-3-.3-.8-.5-1.3-.6-1.7-.2-.5-.2-.5-.3-1.6-.7-5.3-4.3-9.4-9-10.2h-.3c-3.7-.7-7.8-1.4-11.8-1.4-9.3,0-15.8,3.9-19.3,11.5-1.5,3.3-1.9,6.8-2.1,9.9-.2,2.2-.4,4.6-1,5.6-.4.5-1.8,1.8-2.8,2.8-.3,0-.6,0-1,0s-.9,0-1.2,0c-8.2.9-15,5.8-19.7,14.1-3.1,5.5-5.4,12.4-6.9,21.1h0c-.7,4.4-1.6,9.2-1.3,14,.3,6.3,2.6,11.3,6.6,14.9.2.2.5.4.7.5.9,2.5,2.4,7.4,2.6,8.3.3,1.2.4,2.2.3,3.2,0,.6-.2,1.6-.4,2.7-.7,4.1-1.8,10.9,3.4,15,1.7,1.3,3.4,2,5.2,2s.7,0,1,0c.7.4,1.7.9,2.9,1.1,0,.8,0,1.6,0,2.4.1,3.7.2,7.3-.3,10.3-.6,3-2.3,6.7-3.8,10l-.4.9h0c-.6,1.3-1.2,2.6-1.8,3.9h0c-.2.4-.4.9-.6,1.3-.4.9-.8,1.7-1.2,2.6,0,0,0,0,0,.1-.1.2-.2.5-.4.7h0c-.5.9-.9,1.8-1.4,2.7-3.1,6.2-6.2,11.6-9.2,16.4-.2.3-.5.7-.8,1.2-5.1,7.8-6.5,10.7-6.3,13.4.2,3.4,3,6.3,6,9,.1.1.2.2.4.3,1.8,1.7,4.9,4.4,8.5,4.5,4.8,5,12,8.3,19,8.3s5.1-.5,7.4-1.4c4.2-1.7,7-5.5,7.4-10,.4-4.7-2-9.4-6-12-1.9-1.2-3.5-1.7-4.6-2-.2,0-.5-.1-.7-.2,0,0,0,0,0-.1.9-1,2.4-3,5.1-7.1,3.3-5.1,6.2-10.6,9-15.8,2.2-4.1,4.5-8.4,6.9-12.3.2-.4.5-.8.7-1.1v-.2c.1,0,.2-.2.2-.2.2-.5.4-.9.6-1.4,0-.1.1-.3.2-.4,0,0,0-.1,0-.2.4-.9.7-1.8.9-2.6.1-.4.2-.7.3-1.1.3-1.2.5-2.5.7-3.6.1-.6.2-1.3.3-1.9.4-3.5.6-7,.8-10.4,0-.1,0-.3,0-.4l3.2,1-1.3,11-.4,3.6v1.1c-.1,0-.4,2.5-.4,2.5v.2s0,.4,0,.4l-.3,2.7-1.2,10c-.2,1.2-.3,3.1,1.1,4.9,0,0,0,.2,0,.2-.3,1.4-.5,2.2-.6,2.8,0,.4-.1.7-.2,1.2-.9,4.9-1.5,9.3-.6,12.6,1.6,5.7,8.6,7.7,14.2,7.7s2.9-.2,4-.5c.8-.2,1.5-.5,2-.9,0,0,0,0,.1,0,2.8.9,6.5,1.5,10.1,1.5,8.4,0,14.6-2.7,17.4-7.7,2.1-3.8,2.4-7.9.6-11.6-2-4.2-6.3-7.3-11.3-8.2-1.5-.3-2.9-.3-4.2-.4-.3,0-.5,0-.7,0,.2-.8.4-1.5.5-2.3.5-2.8.7-5.7,1-8.6.2-2,.4-4,.6-5.8.2-1.6.5-3.6.9-5.7,0-.4.1-.9.2-1.3,0-.1,0-.3,0-.4.1-.7.2-1.4.3-2,0,0,0-.1,0-.2,0-.5.2-1,.2-1.5.1-.9.3-1.7.4-2.6.2-1.4.4-2.7.5-4,.6-4.5.9-8.7.4-11.9-1-7.2-8.9-11.2-14.1-13.8-.3-.2-.7-.3-1-.5-4.8-2.4-10-4.7-16.2-7.1.1-.2.5-.7.8-1.1.4-.5.8-1.2,1.2-1.9,3.3,1.8,7,2.7,11.2,2.7s5.5-.4,8.6-1.1c1.2-.3,2.3-.7,3.5-1.1.7-.3,1.8-.7,2.2-.8.9-.1,1.7-.2,2.6-.2s.8,0,1.1,0c.4,0,.8,0,1.1,0,3.2,0,5.6-.8,9.3-3,0,0,.2,0,.3,0,1.2-.5,4.6-1.7,5.4-6.4.2-1,.1-1.9,0-2.7.8-2.1.9-4.6-.7-6.8Z"/>
      <path class="st1" d="M120,553c-1.9-2.4-4.3-3.7-6.2-4.7-.7-.4-1.4-.8-2-1.1-2.9-2-7.6-6.5-9.5-9.2.2-.5.3-.9.4-1.4.5-2.8,0-7.4-.3-9.9-.6-4.2-2.2-9.5-4.1-14,2.1-1.5,3.9-3.5,4.9-6.1.4-.9.6-2,.8-3.2,1.2-.8,2.6-2.1,3.1-4,1.4-4.7-1.4-7.8-2.7-9.3-.2-.2-.5-.5-.6-.7-.3-.6-.6-2-.9-3.3,0,0,.1-.1.2-.2,1.6-2.2,2-5.2,1.1-8.6-.4-1.4-2-6.2-6-7.9-1-.4-2-.6-3.2-.6,0,0-.1,0-.2-.1-1.2-.9-3-2.1-5.1-2.7-2.2-.6-4.5-.9-6.8-.9-4.8,0-9.4,1.5-12.9,4.1-4.1,3.1-6.5,7.5-7.1,12.7,0,.8-.1,1.4-.1,1.8,0,.8,0,.9-.4,2-.2.7-.7,2.3.5,6.7.4,1.4.8,2.5,1.1,3.3-.7.4-1.4.9-2,1.5-.7,0-1.3-.1-2-.1-9.4,0-16,9-18.2,12-.4.5-.8,1.2-1.3,2,0,.1-.1.2-.2.3-.4.1-.8.2-1.3.5-.9.4-3.7,1.7-7.3,8.4-1,1.8-3.3,6.3-3.5,9.6-.2,3.1.5,4.9,1.5,6.4,0,0,0,0,0,.1,0,.2,0,.6,0,.8,0,.8.1,1.9.3,2.9,1,4.3,4,8.2,7.7,10.1h.2c0,.5,0,.9.1,1.2.2,2.1.5,4.4.3,5.9,0,.2-.2.8-.4,1.2-.3.8-.6,1.8-.9,2.9,0,0-1.5,8.8,1.2,13.3.3.6.8,1,1.2,1.4-1.2-.4-2.3-.5-3-.5,0,0,0,0-.1,0-.7-.4-1.7-1-3.1-1.2-.5,0-1-.1-1.5-.1-5.6,0-7.8,4.6-8.7,6.3-1.2,2.6-2.7,7.4-3.6,12.6-.2,1.2-.4,2.3-.5,3.5,0,.2,0,.4,0,.6-.1,1-.2,1.9-.2,2.8,0,.1,0,.3,0,.4s0,.1,0,.2c0,1.1,0,2.2,0,3.2,0,1.5.3,2.8.7,4,1.4,4.7,5,7.7,9.2,7.7s6.1-1.7,8-4.8c1.2-1.8,2-3.5,2.7-5.1.5-1,.9-1.9,1.4-2.8.9.3,1.9.5,3,.7,3.9.6,10.1,1.4,14.9,1.6,1.1,0,2,0,2.9,0,1.4,0,2.6,0,3.7-.1,0,.5-.2,1-.2,1.6,0,.8,0,1.8.4,3-.6,1.2-1.2,2.4-1.7,3.8-.2,0-.5,0-.8,0-1.9.2-3.6.3-5.3.3s-1.1,0-1.6,0c-.6,0-2-.4-3.2-.6-2.5-.6-5.4-1.2-8-1.2s-4.5.6-6.1,1.9c-3.4,2.7-4,7.3-1.5,11.1.4.6.8,1.1,1.2,1.5-2.9.5-4.8,1.2-6.1,2.9-1.5,2-1.8,4.4-.9,6.5,1.8,3.9,6.5,4.2,8.8,4.3h.2c4.9.3,10.3.5,16.5.5s11.4-.1,17-.2c5.5-.1,11.1-.2,16.5-.2h2.4c1.9,0,3.7.1,5.8.2,2.2.1,4.5.2,6.9.2s2.9,0,4.2-.1c4.3-.3,7.2-1.8,8.6-4.3,1.1-1.9,1.2-4.2.1-6.3-.3-.7-.7-1.2-.9-1.4-.3-.3-.5-.6-.8-.8-1-.8-1.4-.7-1.7-1.1-.6-.8,1.2-2.3,1.8-4.4.6-2.3-.6-4.9-2-6.4-2.5-2.6-6.2-2.4-6.6-2.4-3.6.2-5.5,2.8-8.2,1.7-.4-.2-.6-.3-1.1-.7-2.3-1.6-3.5-3.6-4.2-4.9,0-.2.2-.5.3-.9,0,0,0-.1,0-.2.2-1.1.3-2.1.4-3,.1-1,.2-1.7.4-2.6.5-2,1.5-4.7,2.5-7.6.1-.4.3-.8.4-1.1.4-1,.7-2.1,1.1-3.1,0,0,0,0,0,0,0-.1,0-.2.1-.3.3-.9.6-1.8.9-2.8.1-.3.2-.6.3-.9.4-1.2.7-2.4,1-3.6.8-3.4,1.2-6.5.9-9.4-.7-6.4-6.5-11.3-10.7-14.9-.5-.5-1-.9-1.5-1.3-1.4-1.3-2.9-2.5-4.3-3.6-.2-.2-.5-.4-.7-.6,0,0,0-.1,0-.2,2,2,4.2,3.7,6.2,5.2,1.2.9,2.3,1.7,3.3,2.6,1.1,1,4.5,3.9,6.1,5.5.2.3.7,1.2,1,1.8,1.3,2.4,2.3,4.3,4.4,5.2,1.8.8,6,.9,6.1.9.5,0,.9,0,1.3-.1,1.6-.3,2.6-1.1,3.3-1.7.9-.3,1.8-.8,2.7-1.6.8-1.1,1.5-2.3,2.3-3.4,2-5.1.2-11.3-2.6-14.9Z"/>
      <path class="st1" d="M221.8,604.1c-2.6-3.8-7.4-6.4-11.9-6.6,0-.6,0-1.2,0-1.9,0-1.6,0-3,.2-4.5.2-2.2.4-4.4.6-6.8.7-7.8,1.5-15.9.8-23.5,0-.3,0-.6,0-.9,0-.7-.2-1.3-.3-2,0-.3-.1-.7-.2-1,0,0,0,0,0,0-.1-.6-.3-1.2-.5-1.8-.1-.5-.3-1-.5-1.5,0-.1,0-.3-.1-.4.3,0,.6,0,.8,0s.3,0,.4,0c1.3,0,2.5-.5,3.4-1,.4-.2.8-.5,1.1-.7,1.6-1.1,2.9-2.5,3.8-4.2,2.4-4.3,2.7-9.9,1.2-14.1-.7-2.1-2.2-4.1-3.6-6.1-.3-.5-.8-1.1-1.2-1.6,0-.6,0-1.4,0-2.2-.3-1.7-1.1-3.6-1.8-5.5-.4-1-.8-2-1-2.7-2.1-6.9-4.5-15-6.4-23.2-.3-1.2-.6-2.9-.9-4.7-1.4-7.8-2.7-14.1-5.5-17.7,0,0,0,0,0,0,2-1.6,3.5-3.9,4.4-6.8.2-.7.4-1.5.5-2.5.2,0,.4-.2.6-.3,2.2-1.3,3.5-3.4,3.8-6,.4-3.2-1.4-6-2.8-8.1-.4-.6-.9-1.4-1.1-1.7-.3-.9-.5-2-.8-3.2-.3-1.5-.6-3.3-1.3-5.1h0c1.5-7.4-1-10.3-3.4-11.5-1-.5-2.1-.7-3.4-.7s-3.4.4-5.1.8c-.6.2-1.6.4-1.9.4-.3,0-.6,0-1,0-1,0-1.9,0-2.9-.1-1,0-2-.1-3-.1-4.2,0-7.6,1.3-11.1,4.1-4.6,3.8-7.3,9.1-7.5,15.1-.2,5.1,1.3,10.2,4.4,14.5-2,1.5-4.2,2.5-6.4,3.5-3.7,1.7-7.8,3.6-11.7,7.7-.6.6-1.1,1.3-1.4,1.9-.1,0-.2,0-.3.1-1,.3-2.2.7-3.4,1.4-7,4.2-10.7,14.5-13.5,24-1.1,3.8-2.4,8.8-2.4,13.6,0,4.3,1.1,11.9,8.7,14.8.4.1.8.3,1.2.4l.6,6.8v1.4c.1,0,.4.4.4.4,0,.5-.2,1.1-.3,1.6-.2,1-.5,2.2-.5,3.4-.3,5.6.4,9.5,2.3,12.2,1.4,2,3,2.9,4.3,3.3.2.2.3.3.5.5,1.2,1,2.3,1.6,3.4,1.9-.9,3.5-2.8,7-5,10.6-.7,1.1-1.5,2.3-2.3,3.4-.6.9-1.2,1.8-1.9,2.6-.7,1-1.5,2-2.2,3-.4.5-.8,1-1.1,1.5-.5.6-.9,1.3-1.4,1.9-.6.9-1.2,1.7-1.8,2.6,0,0,0,.1-.1.2-.2.4-.5.8-.8,1.1-.6.9-1.2,1.9-1.8,2.8-.5.8-.9,1.6-1.4,2.4-.5.8-.9,1.8-1,3.1-.1.1-.2.2-.4.4,0,0-6.2,6.6-7.4,10.4-.8,2.8-.3,5.7,1.5,8.6,1.1,1.7,2.6,3.3,4.5,4.8.1,0,.2.1.3.2h0c1.8,1.4,3.4,1.7,4.4,1.9,0,.2.2.3.3.5.4.6.9,1.3,1.5,1.9,0,0,.2.2.2.2,1.4,1.5,2.8,2.7,4.2,3.7,3.7,2.7,7.5,3.9,11.9,3.9s4.2-.3,6.5-.8c3.5-.8,7.2-4.8,7.7-8.3,1.2-7.5-4.3-10.8-6.9-12.4-.5-.3-1.2-.8-1.7-1.1.3-.4.7-.8,1.1-1.4,1.7-2.2,3.1-4.7,4.6-7.1,1.1-1.8,2.1-3.5,3.1-5,1.5-2.3,3.1-4.5,4.9-6.8,3.1-4.2,6.2-8.5,8.9-13.2-.2,3.5-.6,7.5-1,10.8-.4,3.3-.8,6.4-.9,9h0c-.2,5.7,0,7.4.3,8.6.1.5.5,1.4,1.2,2.4h0c-.3,1.6-.5,2.4-.6,3-.2,2.4-.4,6,0,9,0,.1,0,.2,0,.3.2,1.4.7,5.5,5.1,6.9,1.7.6,6.4,1.4,8.4,1.4h.1c1.6,0,4.1-.7,5.7-2.1,0,0,0,0,0,0,1.7.4,3.3.8,4.6.9.8,0,1.6,0,2.5,0,4.8,0,16.1-.9,19-8.9,1.2-3.5.7-7.2-1.6-10.4Z"/>
      <g>
        <path class="st0" d="M259.5,511.7l-.7.9.9.8,9.8,2.9c-1,7-.4,14.9-2.2,21.9-.3,1.2-.7,2.5-1.2,3.7-.1.3-.2.6-.4.9,0,0,0,0,0,0-.4.9-.9,1.8-1.4,2.8,0,0,0,.1,0,.2.6-.1,1.2-.2,1.8-.3,0,0,0-.1.1-.2.3-.6.7-1.1,1-1.7.2-.4.4-.8.5-1.1.1-.3.3-.6.4-1,.4-1.2.8-2.4,1-3.6.2-1.2.4-2.4.6-3.7.7-5.7.7-11.6,1.2-17.3l13.9,4.5-1.6,13.3-.4,3.6-.2,1.3-.3,2.3h0c.5,0,1.1-.1,1.6-.3v-.2s.2-2.3.2-2.3v-1.3c.1,0,.5-3.6.5-3.6l1.5-14.4-26.8-8.2ZM259.5,511.7l-.7.9.9.8,9.8,2.9c-1,7-.4,14.9-2.2,21.9-.3,1.2-.7,2.5-1.2,3.7-.1.3-.2.6-.4.9,0,0,0,0,0,0-.4.9-.9,1.8-1.4,2.8,0,0,0,.1,0,.2.6-.1,1.2-.2,1.8-.3,0,0,0-.1.1-.2.3-.6.7-1.1,1-1.7.2-.4.4-.8.5-1.1.1-.3.3-.6.4-1,.4-1.2.8-2.4,1-3.6.2-1.2.4-2.4.6-3.7.7-5.7.7-11.6,1.2-17.3l13.9,4.5-1.6,13.3-.4,3.6-.2,1.3-.3,2.3h0c.5,0,1.1-.1,1.6-.3v-.2s.2-2.3.2-2.3v-1.3c.1,0,.5-3.6.5-3.6l1.5-14.4-26.8-8.2ZM259.5,511.7l-.7.9.9.8,9.8,2.9c-1,7-.4,14.9-2.2,21.9-.3,1.2-.7,2.5-1.2,3.7-.1.3-.2.6-.4.9,0,0,0,0,0,0-.4.9-.9,1.8-1.4,2.8.6,0,1.2-.2,1.8-.3.3-.6.7-1.1,1-1.7.2-.4.4-.8.5-1.1.1-.3.3-.6.4-1,.4-1.2.8-2.4,1-3.6.2-1.2.4-2.4.6-3.7.7-5.7.7-11.6,1.2-17.3l13.9,4.5-1.6,13.3-.4,3.6-.2,1.3-.3,2.3c.4-.1.9-.2,1.3-.3h.1c0,0,.2,0,.2,0l.2-2.3v-1.3c.1,0,.5-3.6.5-3.6l1.5-14.4-26.8-8.2ZM259.5,511.7l-.7.9.9.8,9.8,2.9c-1,7-.4,14.9-2.2,21.9-.3,1.2-.7,2.5-1.2,3.7-.1.3-.2.6-.4.9,0,0,0,0,0,0,.7-.1,1.3-.2,2-.3.1-.3.3-.6.4-1,.4-1.2.8-2.4,1-3.6.2-1.2.4-2.4.6-3.7.7-5.7.7-11.6,1.2-17.3l13.9,4.5-1.6,13.3-.4,3.6-.2,1.3c.5-.1,1.1-.2,1.6-.4v-1.3c.1,0,.5-3.6.5-3.6l1.5-14.4-26.8-8.2ZM321.7,469.5c0-.2.8-1.2.5-2.6-.3-1.5-1.8-1.2-1.9-1.4-.1-.1,0-1.4-.2-2-.6-1.8-3.6-2.2-5.2-2-1.6.2-5.9,2.1-6.9,3.3-.6.7-1.1,2.6-1.5,2.9-.9.8-7.1,1.5-7.8,1-.6-2.4-1.3-5-4.1-5.4-2-8-4.9-16.1-10.5-22.4,6,.3,7.3-4.9,7-9.9,0-.5-.5-1.1-.5-1.5,0-.6.8-1.6.8-2.6,0-.6-.4-2-.3-2.1,0-.1,1.5-.6,2.2-1.2,2.2-2.1-.3-3.4-1.5-5.3-1.6-2.7-1.8-5.2-2.8-8-.8-2.3-.9-1.8-1.2-4.3-.3-2.5-1.9-5.2-4.6-5.6-9.6-1.6-20.7-3.6-25.7,7.1-2.5,5.3-.8,12.6-3.8,16.6-.4.5-4.4,4.5-4.7,4.7-.9.4-2.8,0-3.9.2-14.6,1.7-19.8,18.6-21.9,30.8-1.4,7.9-3.2,17.9,3.5,23.9.4.4,1.2.5,1.4.9.3.5,3.3,9.7,3.5,10.8.3,1.5.5,3,.4,4.5-.2,3.9-2.7,10.4,1,13.2,1.9,1.5,2.5.5,4,.7.7,0,1.7,1.2,3,1.4,1.1.1,1.7-.6,2.2-.5.5,0,1.2.7,1.9.5-.4,6.1.7,13-.4,18.9-.5,2.8-1.7,5.8-3,8.6-.5,1.2-1.1,2.4-1.6,3.5,0,.1,0,.2-.1.3-.2.4-.3.8-.5,1.1-.4.9-.8,1.8-1.2,2.7,0,0,0,0,0,.1h0c0,.2-.2.4-.3.6-.4.9-.9,1.9-1.4,2.8-3.5,7.1-7.3,14.2-11.4,20.7-1.3,2.1-6.4,9.5-6.3,11.5.1,1.6,3,4.2,4.2,5.4,1.6,1.5,5.5,5.3,7.1,2.5,4.2,6.9,14.9,11.4,22.6,8.3,5.5-2.2,5.3-9.5.6-12.5-3.7-2.3-5.8-.7-7.8-5.6-.2-.6-1.3-3.8-.9-4.2,0,0,1.2.2,1.9-.3.9-.7,4.1-5.5,4.9-6.8,4.9-7.6,9-16,13.5-24,.6-1,1.2-2,1.8-3,0-.1.1-.2.2-.3,0,0,0-.1.1-.2.3-.6.7-1.1,1-1.7.2-.4.4-.8.5-1.1.1-.3.3-.6.4-1,.4-1.2.8-2.4,1-3.6.2-1.2.4-2.4.6-3.7.7-5.7.7-11.6,1.2-17.3l13.9,4.5-1.6,13.3-.4,3.6-.2,1.3-.3,2.3h0c0,.1,0,.8,0,.8l-.3,2.6-1.4,12c-.5,1.3,1.6,1.5,1.7,2,0,.4-1.1,5-1.3,5.9-.5,3-1.7,8.7-.9,11.5.9,3.4,8.7,4.3,11.5,3.5,1.3-.4,2.4-2.1,2.5-2.1.2,0,2.2,1.1,2.8,1.3,5.7,1.9,17.8,2.2,21.2-3.8,3.2-5.6-1.3-10.9-7-11.8-4.9-.9-8.9.9-11.6-5,2.3-.8,2.5-1.6,2.9-3.8.8-4.5.9-9.6,1.5-14.2,0-.8.2-1.6.4-2.5,0-.6.2-1.3.3-1.9,0-.6.2-1.1.3-1.8h0c0-.7.2-1.2.3-1.8.1-.8.3-1.6.4-2.3.2-1.3.4-2.7.6-4,.8-5.3,1.3-10.5.9-14-.6-4.8-8.3-8.2-12.2-10.2-6.6-3.3-13.5-6.1-20.4-8.6.6-1.7,1-4,1.8-5.6.6-1.3,1.8-2.5,2.5-3.9.9-1.7,1.5-3.8,2.1-5.6l2.9,3c5.3,3.8,11.7,3.7,17.9,2.2,1.9-.5,4.5-1.8,6.2-2,6-.8,6.2,1.1,12.1-2.5,1.4-.8,2.7-.5,3.1-2.8.2-1.2-.7-2.2-.7-2.5,0-.2.7-.7.9-1.1,1.1-2.4-1.5-2.8-1.5-3.3ZM320.6,467.6c.4,1.2-3.2,2.6-3.4,2.3,0-.5-.2-1.6,0-2,.1-.2,3.1-1.5,3.3-.3ZM318.4,465.1c-.1.3-1.4,1-1.6,1-.2,0-2-2.5-2.5-2.9,1.2-.2,4.7-.1,4.1,1.8ZM288.4,450.4l4.3,12.9-6.4,3.1c2.3-4.7,2.2-9.9,1.8-15,0-.3-.2-1.1.3-1ZM284,468.2c-.5,0-.2-.6-.2-.9.3-2.4.9-4.7,1.1-7.1.4-5.7,0-13.1-3.4-17.9-.3-.5-1.4-1.2-1.5-1.7,0-.3.4-1.4.8-1,0,0,0,.7.3,1,.7,1.1,1.6,1.8,2.3,2.9,5,7.4,3.9,16.8.6,24.6ZM292.5,422c-2,2-5.2,1.4-7.7,2.2-1.3.4-4.8,2.9-5.5,2.9-2-.2-3-4.9-3.1-6.5-.3-5.5,6-9.5,7-15,2,.9,3.3,3.1,4.1,5.1,1.6,4,1.8,8.2,5.2,11.4ZM255.1,425.1c4.7-5.9-.5-16.6,8.8-22.4,5.4-3.4,9.8-1.8,15.4-1,2.5.4,4.7-.5,6.3,2.5,1,1.9-1.4-.4-1.8-.5-2.4-.9-1.8.8-2.5,2.5-1.5,3.6-3.5,5.6-5.3,8.7-1.8,3.1-1.7,8.6.2,11.7,2.9,4.8,6,.4,9.1-.6.5-.2,3.9-.9,4.1-.7.5.4.4,2.7-.3,3.3-1.5,1.4-5.2,0-5.2,1.5,0,1.4,2.7,1.1,3.6,1,.4,0,1.9-.8,1.9-.1,0,1.3.2,3.2,0,4.4-.1.7-1.1,2.7-1.7,3.2-3.2,2.8-9.6-1.9-11.3-5-2.4-4.3-1.2-10.3-3.2-14.9-3.2-7.2-11.8-1.9-7.8,5.4.3.6,1.9,2.1,1.8,2.4-.2,1-5,5.5-5.6,6.9-1.3,1.1-2,.2-3.2.3-3.2.1-6.1,1.5-9.2,2.1-.6-5.4,3.3-7.1,6-10.5ZM277.6,443.7c-3.6-4.7-7.9-8.6-12.5-12.4,1-.5,3.4-4.5,3.8-4.7.5-.3,1.8.1,2.2-.8.7-1.8-2.1-.4-3.5-1.4-3.6-2.5-1.2-10.2,2.6-7,3.6,3.2,1.1,13.6,6.2,19.2.5.6,2.2,1.6,2.3,2.1.2.7-1.3,3.9-1.1,5ZM258.1,453.6c-.7-.2-1.1-.3-1.6.3-1.1,1.3-2.6,4.3-3.7,5.9-.4.6-2.7,3.9-3,4-2.1-.5-14.5-8.3-14.6-9.4,2.8-4.4,5.9-9.4,9.5-13.1,1.5-1.6,5.7-5,8-4.8,1.2.2,3.7,2.5,4.4,3.4,9.2,11,.3,30.6-12.4,34.7.4-2.3,1.9-2.8,3-4.1,2.2-2.6,6.8-9.9,8.7-13.1.4-.7,2.1-3.1,1.6-3.8ZM240.7,460.7c2.6,1.7,5.3,3.1,8,4.5-.2,1.6-2.5,5-4.1,5.2-4.2.7-10.4-5.8-13.5-8.3-.4-.4-.2-.6-.2-1,.4-1.7,2.6-3.5,3.1-5.2.4-.1.5.1.7.3,2,1.4,3.9,3.1,6,4.5ZM248.8,474.7c13.2-7.5,20-28.9,6.1-39.2,1.8,0,4.9-.7,6.5-.2.4.1,1.3,1.2,1.7,1.5,12.3,14.2-2.1,39.8-19.2,41.8.2-.5.2-1.7.3-2,.1-.2,3.7-1.5,4.6-2ZM228.1,481.4c0,.3.2,1-.4.7-1.1-.5-2.8-3.8-3.2-5-2.7-8.4,2.1-29,6.7-36.7,3.6-6,9.9-10.1,17-10.2-.8,1.4-.2,5.6-.7,6.4-.2.3-2,1.4-2.5,1.9-3.9,3.6-7,8.1-9.9,12.5-1.3,2-5.2,7.4-5.8,9.3-1,2.7,1.2,2.6,1.2,4.1-1,4.1-2.1,8.3-2.4,12.5,0,1.4.1,3,0,4.4ZM242.5,511.6c-.4-1.1-.1-3.6-1.9-2.8-.2,1.7.3,2.9.6,4.5-1.5.3-3.5-1.4-4.1-2.7-.3-.6-.1-2-1-2.2-1.8-.3-.7,2.9,0,3.7-5.2-.6-2.6-7.3-2.3-10.6.6-7.8-2.3-10.2-3.6-16.8-1.3-6.5.5-13.1,1.8-19.5,3.6,2.9,7.1,6.4,11.9,7-.6,1.5-1.1,3-1.4,4.6-.8,4.7-1,16,0,20.5.7,3.2,3.8,3.1,5.6,5.5,1.5,2,2.4,5.8-1,6.1-.2-.9.3-3.2-.1-3.8-.4-.6-1.6-.2-1.6.2,0,1.7.3,4.6,0,6.1-.4,2.4-1.9,2.5-2.8.1ZM251.5,600.4c-5.9,2.5-15.2-.6-19.2-5.5-.5-.7-1.8-3.1-2.2-3.3-1.5-.8-1.8,1.4-2.5,1.6-.8.1-7.6-5.9-7.8-6.9-.2-.8,1.5-3.1,1.8-4.1,4.3,3.9,8.5,8.4,13.1,11.9,6,4.7,12.5,7.6,19.6,2.9-.2,1.6-1.3,2.8-2.8,3.5ZM244,586.2c.3,0,.4.9.8,1-.7.6-4.8,2.2-3.9,3.4,1,1.4,4.2-2.2,5.2-2,.3,0,.7.5,1.1.7,2.7.9,6.6,1.6,7.2,5.1.2,1-1.9,2-2.7,2.3-8.8,3.7-16.6-4.2-22.5-9.7-2.2-2-4.6-4.1-6.4-6.4,0-.5,2.3-4.1,2.8-4.7,2.2-2.9,1.4-1.7,4-.3,2.5,1.4,5.3,2.8,8.1,3.6.8.2,4.4.9,4.6,1.1,1.3,1.5-1.1,1.4-1.9,1.6-1.1.3-4,1-3,2.3.6.8,2.2-.3,3-.5,1.9-.6,2.8-1,3.1,1.2-1,0-4.7,1.1-4.9,1.9-.6,2.3,4.8-.6,5.6-.5ZM298.9,578.2c-1.3-.3-4.7-2.1-5.1-2.1-1,0-1.6,1.9-2.7,2.4-1.9.8-8.4-.1-9.3-2.2-.3-.7-.7-3.8,0-3.8,2.8,1.3,5.8,1.9,8.8,2.5,8.5,1.7,19.2,3.5,26.5-2.2-1.8,7.1-12.7,6.6-18.4,5.4ZM299.9,562.3c2.5.9-1.8,3.9-.5,4.8,1.6,1,2.2-2.7,2.8-2.8.4,0,1.1.4,1.6.3.2.2-1.8,3.8-.1,4.1,1.3.2,1-3.4,2-3.7,1.5-.5,5.6.3,7.1,1,5.8,2.5,4.5,6.1-.9,7.9-4,1.3-8.2,1.4-12.3,1-2.1-.2-17.8-2.9-18-4.2l2.1-11.2c3.3.7,7,.8,10.3.6.9,0,3.2-.7,3.7-.6.3.1,1.1,1.3,1,1.5,0,.3-1.5,1.4-1.9,2.2-.2.4-.7,1.8-.4,2.1,1,1,2.5-2.6,3.3-2.9ZM294,503.6c5,2.5,12.6,5.5,11.6,12.2l-1.5,11.4-.5,3.9-.3,2.2-.2,1.7v.2s-.2,1.6-.2,1.6l-.2,2-2.2,17.5c-5.4,3.1-12.2,2.6-18.1,1l1.3-12.5.3-2.5v-.6c0,0,0-.2,0-.2l.2-2.3v-1.3c.1,0,.5-3.6.5-3.6l1.5-14.4-26.8-8.2-.7.9.9.8,9.8,2.9c-1,7-.4,14.9-2.2,21.9-.3,1.2-.7,2.5-1.2,3.7-.1.3-.2.6-.4.9,0,0,0,0,0,0-.4.9-.9,1.8-1.4,2.8,0,0,0,.1,0,.2,0,.1,0,.2-.2.3-.5,1-1,2-1.6,3h0c-3.3,6.1-7.4,12.8-10.5,18.1-1.4,2.3-2.8,4.8-4.3,7-.8,1.1-2.6,3.8-3.8,4.1-2.7.6-8.6-1.7-11.2-2.9-.8-.4-4.6-2.3-4.5-3.2,3.1-6.3,6.5-12.5,9.7-18.8.5-1,.9-1.9,1.4-2.9,0-.2.2-.3.2-.5,0,0,0,0,0-.1.4-.9.9-1.8,1.3-2.7,0,0,0,0,0-.1.2-.3.3-.6.4-.9.6-1.2,1.1-2.5,1.7-3.8,1-2.4,2-4.8,2.4-7.1,1.5-7.1-.2-14.2.8-21.4,0-.3.7-2.8.8-2.9.4-.6,2.7-.2,3.6-2.6,1.2-3.1-.6-6.3-3-8.2-1-.8-2.8-1.3-3.3-2.5-.7-1.5-.3-3.5-.4-5.1-.2-2.5-.5-4.9-.3-7.4,9.5,3.4,20.7,7,30.6,3.5l-1.2,4.1c-.2.2-5.7-2.9-3.5.4,8.2,3.5,16.5,6.5,24.5,10.5ZM280.8,473.2c-.8,3.1-3.4,12.1-6.2,13.6-6.6,3.5-21.9.3-28.7-2.6-2.2-1-2.5-1-2.2-3.7,18.2-1.9,32.9-27.2,22-43.1-.5-.6-2.7-2.9-2.7-3.1s1.1-1.8,1.7-1.2l6.8,6c2.2,2.3,4,5.3,6.4,7.3.2,0,.8-.2,1-.4.4-.5.6-2.7.7-3.4,1.4,1.1,2.2,3.2,2.8,5,2.5,8,.8,17.8-1.4,25.7ZM285.6,480.7c-1.1-.9-3.5-2.7-3.6-4.2,0-.6,1.8-4.2,2.3-5,1.8-3,6.4-6.4,9.9-6.5,1.2,0,3.1,2.8,2.5,3.7-.2.2-3.8,2.1-4.6,2.7-1.9,1.4-4.2,3.7-5.2,5.9-.3.6-1,3.4-1.3,3.4ZM308.1,479.9c-6.3.7-10.1,4.3-17.7,2.8-3.1-.6-3.5-1-2.2-4,1.1-2.8,6.3-7.6,9.2-8.2.9-.2,3.5.3,4.8.2.4,0,3.7-.8,3.6-.5-1,.9-1.6,3.6.3,2.6,1.2-.6,2-5.5,3.1-6.8,2.3-3.1,5.9-.6,6.4,2.6.3,1.9-.9,4.3-2.3,1.7-.4-.8-.3-2.5-1.3-2.5-1.7-.2-.7,1.9-.7,2.8,0,.5-.3,1.7-.4,2.2-.3,1-2.4,3.2-1.6,3.8,1,.7,2.6-1.7,2.9-2.5.2-.4.2-1.3.3-1.3.2-.2,2.7,1.1,3.5,0,.8,1.6-.3,1-1,2.1-.8,1.4-.4,2.6.9,3.5.6.4,1.3.4,1.6.9-3,1.5-6.3.5-9.4.9ZM321,476.9c-.8.8-3.6.6-4.3-.4-1.8-2.4,6.9-2.2,4.3.4ZM317.5,471.8c0-.5,3.7-.9,4.1-.4,1,1.2-4.4,2.8-4.1.4ZM259.5,511.7l-.7.9.9.8,9.8,2.9c-1,7-.4,14.9-2.2,21.9-.3,1.2-.7,2.5-1.2,3.7-.1.3-.2.6-.4.9,0,0,0,0,0,0-.4.9-.9,1.8-1.4,2.8.6,0,1.2-.2,1.8-.3.3-.6.7-1.1,1-1.7.2-.4.4-.8.5-1.1.1-.3.3-.6.4-1,.4-1.2.8-2.4,1-3.6.2-1.2.4-2.4.6-3.7.7-5.7.7-11.6,1.2-17.3l13.9,4.5-1.6,13.3-.4,3.6-.2,1.3-.3,2.3c.4-.1.9-.2,1.3-.3h.1c0,0,.2,0,.2,0l.2-2.3v-1.3c.1,0,.5-3.6.5-3.6l1.5-14.4-26.8-8.2ZM259.5,511.7l-.7.9.9.8,9.8,2.9c-1,7-.4,14.9-2.2,21.9-.3,1.2-.7,2.5-1.2,3.7-.1.3-.2.6-.4.9,0,0,0,0,0,0-.4.9-.9,1.8-1.4,2.8,0,0,0,.1,0,.2.6-.1,1.2-.2,1.8-.3,0,0,0-.1.1-.2.3-.6.7-1.1,1-1.7.2-.4.4-.8.5-1.1.1-.3.3-.6.4-1,.4-1.2.8-2.4,1-3.6.2-1.2.4-2.4.6-3.7.7-5.7.7-11.6,1.2-17.3l13.9,4.5-1.6,13.3-.4,3.6-.2,1.3-.3,2.3h0c.5,0,1.1-.1,1.6-.3v-.2s.2-2.3.2-2.3v-1.3c.1,0,.5-3.6.5-3.6l1.5-14.4-26.8-8.2ZM259.5,511.7l-.7.9.9.8,9.8,2.9c-1,7-.4,14.9-2.2,21.9-.3,1.2-.7,2.5-1.2,3.7-.1.3-.2.6-.4.9,0,0,0,0,0,0-.4.9-.9,1.8-1.4,2.8,0,0,0,.1,0,.2.6-.1,1.2-.2,1.8-.3,0,0,0-.1.1-.2.3-.6.7-1.1,1-1.7.2-.4.4-.8.5-1.1.1-.3.3-.6.4-1,.4-1.2.8-2.4,1-3.6.2-1.2.4-2.4.6-3.7.7-5.7.7-11.6,1.2-17.3l13.9,4.5-1.6,13.3-.4,3.6-.2,1.3-.3,2.3h0c.5,0,1.1-.1,1.6-.3v-.2s.2-2.3.2-2.3v-1.3c.1,0,.5-3.6.5-3.6l1.5-14.4-26.8-8.2ZM259.5,511.7l-.7.9.9.8,9.8,2.9c-1,7-.4,14.9-2.2,21.9-.3,1.2-.7,2.5-1.2,3.7-.1.3-.2.6-.4.9,0,0,0,0,0,0-.4.9-.9,1.8-1.4,2.8,0,0,0,.1,0,.2.6-.1,1.2-.2,1.8-.3,0,0,0-.1.1-.2.3-.6.7-1.1,1-1.7.2-.4.4-.8.5-1.1.1-.3.3-.6.4-1,.4-1.2.8-2.4,1-3.6.2-1.2.4-2.4.6-3.7.7-5.7.7-11.6,1.2-17.3l13.9,4.5-1.6,13.3-.4,3.6-.2,1.3-.3,2.3h0c.5,0,1.1-.1,1.6-.3v-.2s.2-2.3.2-2.3v-1.3c.1,0,.5-3.6.5-3.6l1.5-14.4-26.8-8.2Z"/>
        <path class="st0" d="M286.6,411.7c.1.2,0,.7,0,1-.3.8-1.6.4-2.4.5s-2.8,1.5-3.1.4c-.5-1.6,4.9-2.8,5.5-1.9Z"/>
        <path class="st0" d="M283.8,418.9c0-1-.6-2-.1-2.9,1.1-2.4,3.1,3.5.1,2.9Z"/>
        <path class="st0" d="M267.6,418.4c1.8-.5,4.5,3.6,2.9,4s-1.3-1.2-1.7-1.8-2.9-1.8-1.1-2.3Z"/>
      </g>
      <g>
        <path class="st0" d="M94,521.9c1.2,4.3,2.1,8.8,1.9,13.3l-8.1,2.4c3.6-6.2,5.5-13.1,4.4-20.4l1.8,4.7ZM87.6,534.6c-.5,0-.3-.6-.2-.9.9-4.1,2.1-8,2.3-12.3.1-2.6-.3-4.6-.5-7.1,0-.3-.3-1,.2-.9,2.7,7.1,1.7,14.6-1.7,21.3ZM91.9,474.9l-21.8,10.5c-1.7-12.1,13.4-16.4,21.8-10.5ZM70.5,492.9c-.5-.6-1.5-4.9-1-5.4l20.9-10c1.1-.3,2.5-1.2,3.5-1.4,3-.6,4.4,3.6,3.6,5.9-2.7.9-5.4,1.9-8.1,3-5.2,2.2-10.8,5.8-15.8,7.8-1,.4-2.3,1.2-3.1.1ZM84.4,489.5c0,.7-.5,4.7-1,4.6-1-1.1-2.1-2.1-3.6-2.3l4.7-2.3ZM72.8,495.6c-.1-1.2,1.1-1,2-1.5,0,1,0,2,.1,2.9.3,1.4,1.4,2.1,1.6,3.5-1.9-.3-3.6-3.1-3.7-4.9ZM78,501.2c.8-.3,5.7,1.2,5.4-1-.2-1.2-1.9-.2-2.9-.3-5.2-.2-5.8-9.2,0-6.1,1.2.6,2.3,2.7,3.9,1.9,1.6-.8,1.3-6.6,2-7.3.5-.5,5.2-2.5,6.1-2.9.4-.2,3.1-1.1,3.2-1,.3.2,1,6,1.3,7,.5,1.5,3.7,5,3.6,5.6-.2,1-3,1.4-3.3,1.9-.6.9,1.9,3.9-3.2,3.2-.8-.1-3.4-1.7-3.4-.1,0,1.1,2.8,1.7,3.7,1.9.5,0,2.4-.3,2.1.5-.1.3-1.3,1.9-1.6,2.1-2.3,2-6.3,1.9-8.9.5-.8-.4-2.4-2.5-2.9-.8-.3,1,2,2.1,2,2.3.3,1.5-1.2,4.3-2.9,4.7-4.9,1-6.1-5.2-7.9-8.4,1.4-.1,2.5-3.2,3.5-3.7ZM72.5,505.3c1.8,1,3.9,9.3,4,11.5.4,11.3-10.8,22.8-21,26.1-.2-.2.3-2.2.6-2.5.2-.2,4.2-2,5.2-2.6,5.1-3.4,10.4-10.7,11-16.9.5-4.7-.3-11.1-3.7-14.5.7-1,2.7-1.6,3.8-1ZM67.7,502.3c0,0,.8,1.5.8,1.6,0,.2-1.1,1.3-1.4,1-.2-.4-.3-3.4.6-2.6ZM67.5,507.6c1.8.5,3.3,7.7,3.4,9.5.5,8.6-6.3,17.7-14,21.1-.3-.3,1.8-2.7,2.2-2.9.7-.4,1.4-.1,2.1-.6.6-.3,2.3-2.5,2.9-3.2.9-1.2,5.7-8.4,5.4-9.4-.2-.6-1.1-.6-1.6-.2-.4.4-2.7,5.1-3.4,6.2-.6.8-3.6,5-4.2,5.1-.5.1-2.1-.8-2.6-1.1-1.2-.6-8.3-5.3-8.2-6.3,0-.5,4.6-6.5,5.4-7.4,2-2.5,9.3-11.7,12.7-10.8ZM46.5,515c1.7-3.7,8-10,12.1-10.6,2.4-.3,4.9,0,6.5,1.8-5.8,3-9.5,8.6-13.5,13.6-1,.7-6.3-2.2-5-4.8ZM35.5,530.1c1.3-4.3,3.3-9,7-11.8-1.3,2.8-3,5.3-4.3,8.1-.9,2-1.7,4.1-2.4,6.2l-.3-2.4ZM43.3,539.4v5.4c-13.1-4.8-2.6-19.3,1.5-27.1,1.7,1.6,3.3,3,5.5,3.9,0,.2-2.6,3.3-2.8,4.2-.3,1.4,1.2,1.6,1.3,1.8.2.4-1.9,2.5-2.3,3.1-1.7,2.5-3.3,5.6-3.3,8.7ZM69.5,620.4c1.4,0,2.8.5,4.3.7,6.1.7,14.2,1.1,20.4.6,1,0,2-.4,3-.6-.3,1.4-.8,2.1-2.2,2.3-4.4.6-16.3.3-20.9-.3-1.8-.2-4.1-.7-4.6-2.7ZM55.9,633.4c-5.7.1-5.3-6.9-.5-7.2,4.7-.3,6.5,7.1.5,7.2ZM94,630.2c-2-.3-4.1.2-6,.3-8.9.3-17.8,0-26.7.3.2-2-.5-3.6-2-4.8l36.1-.4c-.9,1.5-1.7,2.8-1.5,4.7ZM98.9,621.8c.1-.6,0-1.7.2-2.1.3-.5,4.2-1.1,5-1.1,1.4,0,7.8.5,6.2,3-1.5,2.3-9.6,1.8-12.2,2.2,0-.8.7-1.3.8-2ZM98,625.9c3.7-.9,7.2,1.9,4.9,5.5-2.1,3.5-8.4,1.3-7-3.3.2-.7,1.4-2.1,2.1-2.2ZM88.7,615.5c1.3.5,8.9,1.5,8.4,3.5-.3,1.6-10.4,1.4-12.1,1.3-2.9,0-6.4-.3-9.3-.6-.9,0-5.5-.7-5.9-1.2-.6-.8,1.5-4.4,1.6-5.5,2.8,1.7,6.2,1.9,9.3,1,.7-.2,3.1-1.6,3.3-1.5.4,0,3.3,2.5,4.6,3ZM72.4,611.4c0-.1.8-1.5.9-1.6.5-.3,7.3,2,8.7,1.7-.3.5-1.5.8-2.1,1-.8.2-1.9.5-2.7.5-.7,0-4.8-.9-4.8-1.6ZM86.8,610.1c-5,.2-10-.9-14.7-2.8,0-.7,1.4-3.7,1.9-3.9,4.5,1.4,9.3,2.6,14.1,2.6.3.3-1,4-1.4,4.1ZM91.9,568.3c3.1,3.1,4.5,5.3,4.1,9.9-.5,2.2-1,4.4-1.7,6.6-.4,1.2-.7,2.4-1.1,3.6,0,.3-.2.5-.3.8-.3,1-.6,1.9-.9,2.8,0,.1,0,.2-.1.3,0,0,0,0,0,0-.4,1.1-.7,2.1-1.1,3.2-1,3-1.9,6-2.7,9-4.5-.4-9-1.2-13.3-2.6l1.2-4.3.9-3.2h0c0-.1,0-.4,0-.4l.8-2.9.2-.6,1-3.5,1.7-6c-8.8-5.5-16.8-12.1-25.3-18.1-.9-3.3-1.1-6.7-1-10.1,7,2.8,14.6,3.1,22,2.2l15.5,13.3ZM79,551.8c-.5.8-3.7,1.5-4.7,1.7-6.3,1.1-13.5-.2-19.4-2.5-.6-.5.6-5.3.4-6.4,8.4-2.2,17.5-10.2,20.9-18.3.5-1.1,1.8-4.8,1.8-5.8,0-2,0-4.1,0-6.1,0-.1-.7-.5.1-.4,2.2,1.6,5,1.7,7-.3l1.6-2.6c4,14.1-2.9,27.9-7.7,40.8ZM112.8,567.8c-1.4,0-1-3.3-1.3-4.3,1.9-.6,2.2,4.3,1.3,4.3ZM115.4,566.4c-.6.3-.4-.5-.5-.7-.6-2.3,0-1.9,0-3.5,0-1.7-3-5.2-4.4-6.1-.8-.5-2-.7-1.7.5.2.6,5.1,4.7,4.3,5.4-1.2-.2-2.7-.7-3.8-1.3-.9-.5-3.5-2.6-4.1-2.4-2.4,1.2,3.5,3.7,3.9,4.2.3.4.9,3.1.9,3.7,0,.3,0,1-.5,1-.3-.9-.7-1.9-1.2-2.7-5.1-8.4-17-12.2-21-21.3-.2-.5-1.3-3.4-1.1-3.7l8.1-2.1c0,.8.3,1.5.6,2.1,2,4.3,8.8,10.8,12.8,13.4,3,2,6.2,2.5,7.7,6.3.6,1.5,1.4,6.1-.3,7ZM115.8,556.3c-1.8-2.3-4.6-3.1-7-4.7-3.6-2.4-10.4-8.8-12.1-12.6-1.4-3.2.4-1.8.7-3.4.4-1.9,0-6-.4-8.1-.7-4.7-2.6-10.6-4.7-14.8-.2-.4-1.8-2.7-1.6-2.9,3.4,0,6.2-2.1,7.5-5.2.5-1.2.8-4.4,1-4.7.2-.2,2.4-.8,2.8-2,.8-2.7-1.7-3.9-2.8-5.8-.8-1.4-1.7-5.7-1.8-7.3,0-1.5.8-1.1,1.4-2,1.5-2-.5-7.4-2.7-8.4-.9-.4-1.8,0-2.6-.3-1.1-.3-3-2.3-5.2-2.9-8.9-2.5-19,1.3-20,11.3-.3,2.4,0,2.4-.8,4.8-.3,1,1.1,6.4,2,7.2.4.3,1.5.6,1.6.7.2.3,0,1.2.2,1.7.6,1.9,1.8,3.9,3.6,4.7.2.2-.8,1.6-1,1.8-.2.1-3.7,0-3.9,0-.1,0-.9-2.2-1.6-2.6-2.4-1.4-3.4,1.2-3.1,3.2-8.1-4.5-14.7,2.3-19.2,8.4-.6.8-2,3.6-2.5,3.9-.6.4-1.5.2-2.3.6-2.9,1.3-7.5,10.4-7.8,13.5-.2,2.8.9,3,1.4,4.7.3,1.1.2,2.7.4,3.9.6,2.5,2.5,5.3,4.9,6.5.8.4,2.7.7,2.9,1.2,0,3.5,1,7.9.6,11.3-.2,1.4-1,3-1.3,4.5-.4,2.1-.6,7.6.5,9.4.3.5,3.1,1.5,3.7,1.8.4.2.7.7,1.2.9.6.2,3.9-.3,4.8-.5,1.3-.3,2.6-2.7,2.8-3.9.2-1.6-.2-3.7,0-5.4.5.5,1.5,1,1.9,1.4.8,1,.3,6.3.4,8,0,.6.3,1.2.3,1.7,0,2.7,0,5.3.3,8-3-.5-6.1-1.3-9.2-1.5-1.1,0-3.7-.2-4.7,0-.8.2-1,1.1-1.7,1.1-1.6,0-3.1-1.9-4.8-2.5-1.1-.4-2.1-.2-3-.4-.8-.2-1.5-.9-2.4-1.1-2.5-.4-3.6,1.3-4.5,3.3-1,2.1-2.1,5.7-2.9,9.6-.2,1.1-.4,2.3-.6,3.5,0,.2,0,.4,0,.6-.1,1-.2,1.9-.3,2.9,0,.1,0,.3,0,.4,0,0,0,0,0,.1,0,1.1,0,2.2,0,3.2,0,1.2.2,2.2.5,3.1,1.2,4.1,5,5.5,7.6,1.5,1.3-2,2-3.9,3-5.8.5-1.1,1.1-2.3,2-3.5,0,0,0,0,0,0,0-.1.2-.3.3-.4,0,0,.1-.2.2-.2.4-.6,1.3-2.4,1.6-2.6,0,0,.2-.1.5-.2h0c.6-.2,1.4-.2,1.7-.2,0,0,0,0,0,0,.1,0,.2,2.2.6,2.8,0,0,0,0,0,0,0,0,.3.1.5.2,0,0,.1,0,.2,0,.6.2,1.4.3,1.7.3,3.6.6,8.3,1.1,12.2,1.4h0c.7,0,1.4,0,2,.1,2.8.1,7.9.2,10.4-1,.4-.2.8-.4,1.1-.7,1-.8,1.8-2,2.6-3.4,0,0,0-.1,0-.2,0,0,0-.2.1-.3.4-.9.8-1.9,1.2-3,0-.2.1-.4.2-.6.4-1.2.7-2.4,1.1-3.5.7-2.5,1.3-4.8,1.9-6.4l1.3.6c-.5,1.8-1,3.7-1.6,5.5-.4,1.2-.8,2.4-1.1,3.6,0,.2-.1.4-.2.6-.3,1-.6,2-.9,2.9,0,0,0,.2,0,.3,0,0,0,.1,0,.1h0c0,.2-.1.4-.2.6-.2.8-.4,1.7-.6,2.6-.3,1.5-.6,3.1-1.1,4.2-.6,1.6-2.4,2.7-2.5,5.1-.1,1.8,1.6,1.6,1.4,2.2-1.7,2.9-3.4,5.9-3.8,9.2-4.1.1-8.2.9-12.4.6-3.3-.2-11.1-3.2-13.6-1.1-1.4,1.1-1.2,2.7-.3,4,1.9,3,7.5,3.2,10.6,3.7-1.7,1.4-2.7,3.1-2.3,5.4-2.1,0-12.4.2-13.4,1.6-1.5,2,3,2.1,4.2,2.2,16.8,1.1,35-.1,52.1,0,5.3,0,10.9.7,16.3.3,1.5-.1,5.5-.7,4.4-2.9-.8-1.7-6.9-1.5-8.6-1.5,0-1.1.2-2.2,0-3.3-.2-1-1.2-1.6-1.4-2.5,2.5.2,8.2-.5,8.5-3.7.4-4.6-6.7-4.5-9.8-4.2-.9,0-3,.8-3.5.8-.4,0-.8-1.1-1.3-1.5-2.8-2.3-8.4-1.2-11.1-4.4.4-.3,1.2,0,1.7-.5.2-.2,1.6-3.5,1.7-4,.4-2,.3-3.6.8-5.9.5-1.8,1.2-4,2.1-6.4.4-1,.8-2.1,1.1-3.2,0-.1,0-.2.1-.4h0c.3-.9.6-1.9,1-2.8,0-.3.2-.5.3-.8.4-1.2.8-2.4,1.1-3.6,1-3.6,1.7-7.1,1.4-9.7-.6-5-6.8-9.7-10.4-12.9-3-2.6-6.1-5-9-7.7.4,0,.8-.2,1.2-.5,1.9-1.5,3.4-7.7,4.6-10.2.2-.6.7-1.5,1.2-1.8,1.7,7.7,8.3,11,13.7,15.6,1.9,1.6,5.1,4.3,6.7,6.1,1,1.1,2.7,5.2,3.5,5.5.4.2,3.7.5,4.2.4.7-.1.9-.8,1.3-1,1.5-.8,2.2-.3,3-2.3,1.2-2.9,0-7.3-1.8-9.7ZM55.7,536.7c-2.1,3.7-3.4,15.8-3.1,20.2.2,4.2,2.4,9.4,1,13.5-.1.4-.2,1-.7,1.2.2-.9.9-4.9-.7-4.4-.9.3-.2,6.7-3.7,5.8,1.6-1.8,2.3-4,2-6.4-.4,0-1-.1-1.3.3-.8,1.1-.4,5.7-3.3,4.8.9-.8,2.6-4.6,1-5.1-1.4-.4-1,3.3-2.3,4-.8,0-.8-5.9-.7-6.5.2-2.1,1.5-4.2,1.7-6.2.3-2.5-.5-6.1-.6-8.7-.2-7.4-1-15,5.2-20.2,2.4,1.5,4.6,3.6,7.4,4.6.2.2-1.5,2.4-1.9,2.9ZM42.7,585.3c-.6,1.8-1.1,3.7-1.2,5.6,0,.7,0,1.5,0,2.2-1.3.4-2.7-.7-3.4-1.9-.2-.4-.4-.8-.4-1.2-.2-2.1,2.7-5.4,4.9-4.8ZM25.9,604.6c0-.5-.1-.9-.1-1.4,0-1,0-2.1,0-3.2h0c0-.2,0-.4,0-.5,0-.9.2-1.9.3-2.9,0-.2,0-.4,0-.6.2-1.2.4-2.3.7-3.5.7-3.1,1.6-6.1,2.4-8.1.9-2.1,1.9-4.2,4.3-2.1-1.6,3.1-3,6.5-3.9,9.9-.3,1.1-.6,2.3-.8,3.5,0,.2,0,.4-.1.6-.2,1-.3,1.9-.4,2.9,0,.1,0,.3,0,.4h0c-.1,1.2-.2,2.2-.2,3.3,0,1.9,0,3.8.3,5.7-1.5-.6-2.3-2.4-2.5-4ZM35,598.5c-.1.1-.2.3-.3.4h0c-.3.4-.5.8-.7,1.1-.4.7-.7,1.5-1,2.3-.8,2-1.5,4.2-3,5.7-.2-1.7-.3-3.5-.2-5.3,0-1.1.1-2.2.3-3.3h0c0-.2,0-.3,0-.5.1-1,.3-2,.5-2.9,0-.2,0-.4.1-.6.2-1.2.5-2.4.9-3.5.3-1.1.7-2.2,1-3.3.3-.8,2.3-5.8,2.6-6,1-.6,3.4.7,4.3,1.1.1.9-1,1.1-1.4,1.5-1.6,1.9-2.5,4.1-1.8,6.1.3.9,1,1.7,2,2.4-.1.3-.3.6-.5.8-.1.2-.3.4-.4.6-.8,1.1-1.7,2.1-2.4,3.1ZM43.1,594.2c0-1,0-2.2,0-3.4.3-2.9.9-5.9,1.7-6.4,1-.5,2.5-.2,3.6,0-.8,1.9-1.2,3.9-1.2,5.9,0,1.1.1,2.3.3,3.4,0,.2,0,.3.1.5.2.9.5,1.8.8,2.7l-4.9-.3c-.2-.4-.4-1.1-.5-1.9,0-.2,0-.3,0-.5ZM73.8,587.5c-.4,1.3-.7,2.3-.8,2.6-.1.3-.2.6-.3.9,0,.2-.1.4-.2.6-.4,1.1-.8,2.1-1.3,3,0,0,0,.2-.1.3,0,0,0,.1-.1.2-1.1,1.7-2.7,2.8-5.6,3-1.8.1-13.1,0-14.8-.9,0,0-.1,0-.2,0,0,0,0,0,0,0,0,0,0-.2-.1-.3-.3-.6-.5-1.6-.7-2.8v-.5c-.2-1.1-.3-2.2-.3-3.4,0-2.8.4-5.5,1.5-5.6,2-.3,6.2,1.5,8.2,1.3.4,0,1.1-.3,1.3-.8l-.5-17,16.2,11.7c.2.3-1,4.7-2,7.7ZM43.3,621.3c-1.4-1.7.2-2.5,1.9-2.5,3.1,0,7.5,1.8,11,2.1,1.3,0,3,0,4.4,0,1,0,6.8-1.1,7.1-.9.1,0,.3,1.8.6,2.1l1.8,1.9c-5.4-.5-23.5,1.5-26.9-2.8Z"/>
        <path class="st0" d="M96,489.4c-.9.2-1.8.1-2.7.4s-2.1,1.7-2.3,0,5.6-3.2,5-.4Z"/>
        <path class="st0" d="M81.7,496.2c2.5,2.5-4.9.9-3.4-1.2s3.1.9,3.4,1.2Z"/>
        <path class="st0" d="M92.8,494.9c-.2-.4-.3-3.3,1-2.9.7.2.7,3,0,3.2s-.9-.3-.9-.3Z"/>
        <g>
          <path class="st0" d="M57.5,631.6c-1.8,1.5-5.2-.3-3.7-3,1.9-3.3,6.3.9,3.7,3Z"/>
          <path class="st0" d="M98.2,626.8c-1.7.5-2.1,4.5.7,5.1,4.6.9,4.1-6.5-.7-5.1ZM99.5,630.3c-.5,0-.9-.4-.9-.9s.4-.9.9-.9.9.4.9.9-.4.9-.9.9Z"/>
        </g>
      </g>
      <g>
        <path class="st0" d="M209,602.8c-2.9,0-3.7,1.4-6.1-1.4-2.5-2.9-.8-2.2,1.6-3.7,0-2.3.1-4.7.3-6.9.7-9.3,2.1-19.8,1.4-29,0-.1,0-.2,0-.4,0-.5,0-1-.2-1.5,0-.4-.1-.8-.2-1.1,0,0,0,0,0,0-.1-.6-.3-1.2-.4-1.8-.1-.5-.3-1-.5-1.5-.4-1.1-.8-2.1-1.3-3.1-3.4-6.8-9.3-12.1-13.9-18.4,0-2.7-.2-5.4,0-8.1,0-1.9.5-6.4.9-8.1,0-.2.2-.5.5-.5.2,1.4,1,2.8,1.7,4,1.1,2.1,5.4,9.6,7,10.8.6.4,1.4.4,1.5.4.2.1.6,3.4,1,4.4.4,1.1,1.8,2.6,1.9,3.4.3,1.3-1,4.3.3,5.4.6.5,2.6.7,3.5,1.1,1.9.8,2.1,2.3,4.6.6,3.5-2.3,4.2-8.5,2.9-12.2-.9-2.6-4.9-6.8-5.2-8.5-.1-.8.3-1.3.2-2.2-.3-1.9-2-5.4-2.6-7.6-2.4-7.8-4.7-15.6-6.5-23.5-1.2-5.2-2.4-16.5-5.4-20.2-.8-.9-2.7-2.1-2.9-2.4,0-.2-1.6-3.5-1.4-3.6,4.1.2,6.6-2,7.8-5.8.3-1,.6-4.8.8-5,.4-.5,3.6.1,4-2.8.2-2.1-2.8-5.2-3.6-7.4-1-2.7-1.1-5.5-2.1-8.3-.2-.4-.7-.9-.8-1.2-.1-.5.5-1.1.7-1.7.3-1.2.8-4.8-.5-5.5-1.4-.7-5.8.9-7.7,1-6,.3-9.5-1.8-14.9,2.6-7.2,6-7.2,16.1-1.6,23.2l2.6,2.6c-1.1,1.2-2.4,2.3-3.6,3.3-6,4.9-12.5,5.2-18.2,11.2-.6.6-1.3,2.1-1.9,2.5-.8.6-3.1,1-4.3,1.8-5.8,3.5-9.3,14.6-11.1,20.9-1.8,6.2-5.1,18.8,3.1,21.9,1.2.4,4.1.4,4.3,1l1,10.7c1.2,1.8-.2,5.2-.4,7.6-.1,2.6-.2,6.7,1.3,8.9,1.3,1.9,2,1,3,1.6.3.1.5.9.9,1.2,1.5,1.3,2.1.7,3.6,1,.1,0,2.1.8,2.2.9.1.1,0,.7,0,1-.5,5.8-3.2,11.5-6.8,17-1,1.5-2,3.1-3.1,4.6h0c-.5.7-1,1.4-1.5,2.1-.6.9-1.2,1.7-1.8,2.5,0,0,0,0,0,.1-.4.5-.7,1-1.1,1.5-.7.9-1.3,1.8-2,2.8-1.8,2.5-3.4,5-4.7,7.5-.6.7.5,2,.3,2.3-.3.6-1.8,1.5-2.4,2-1.5,1.5-5.5,6.4-6.1,8.2-.9,2.9,2,6,4.2,7.7,1.8,1.4,2.9.9,4.4,1.8,1.1.7,1.9,2.4,2.8,3.3,5.2,5.6,10,7.3,17.8,5.5,1.3-.3,3.4-2.6,3.6-3.9,1.1-7.1-7.7-6.4-8.6-11.7-.6-3.7.5-3.2,2.2-5.5,2.7-3.6,5-8.1,7.5-12,3.7-5.5,8-10.7,11.6-16.3h0c.5-.8.9-1.5,1.4-2.3.4-.6.7-1.3,1.1-1.9,0,0,0,0,0,0,.4-.7.7-1.4,1.1-2.1.3-.6.6-1.2.8-1.8v-.4c.1,0,1.5-4.1,1.5-4.1l.8-2.5c.7.5,1.3,1,1.9,1.5.9.8,1.5,1.7,2.1,2.9.1.2.2.5.3.7.1.3.2.6.3,1,.1.5.3,1,.4,1.6h0c0,.5.1,1,.2,1.4,0,.6,0,1.1.1,1.7.3,7.5-1.7,17.6-1.9,23.7,0,1.4-.2,5.9,0,6.9.4,1.2,1.9,1,2,1.1.2.2-1,5.3-1.1,6.3-.2,2.4-.3,5.5,0,7.8.2,1.3.2,2.4,1.5,2.9,1.3.4,5.5,1.1,6.8,1.1.6,0,1.9-.4,2.3-.9.5-.5.7-1.8.9-1.8,1-.1,5.8,1.3,7.5,1.5,4.4.3,14.3-.3,16-5.2,1.9-5.3-4.5-9.9-9.3-9.9ZM208,544.8c.7-1.2.3-2.4,2-1.7.3.3-1.4,2.1-2,1.7ZM214.6,538.6c0,2-1.1,6.3-3,7.3-.7.4-1.9.5-1.3-.4.4-.6,1.1-1,1.5-1.7,1-1.8,1.3-3.9,1.1-5.8,0-.6-1-4.1-1.2-4.2-.4-.3-1.4,0-1.4.7,0,.8,2.2,6.7.4,7.1-2.1.6-2.5-6.1-3.2-7-.3-.4-1.2-.4-1.5,0-.6.8,2.1,6.4.7,8.9-.2.3-.6.9-1,.8-1-.2.2-3.3,0-4.2-.1-1.3-2-3.4-2.5-5.1-.3-1-.8-3.2,0-4l5.4-3.6c2,3.7,5.8,6.9,5.9,11.3ZM204.7,511.9l4.2,12.7c0,.9-6.8,5.6-7.7,5.6-.4,0-.6-.3-.9-.6-1.9-1.7-8.4-13.1-8.6-15.6-.4-5.4,3.7-11.6,5.2-16.6.8-2.7,1.4-5.5,1.8-8.3l6,22.7ZM194.1,498.9c.3-3.4,1-6.8,1.2-10.2.2-5.1.2-10.4-1.2-15.3,1.4,1.1,2.3,3.3,2.7,5,1.8,7.1-.1,14.7-2.4,21.5-.5,0-.3-.7-.3-1ZM193.4,477.8c.3.3.4,7.1.3,8-.3,8.9-2,19.1-4,27.8,0,.4.1,1,0,1.2-.3.7-4.5,1.7-4.8,1.4,2.4-13.6,3.8-27.3,4.7-41.1,1,.6,1.4,1.8,2.5,2.3.5.3,1.3.2,1.3.3ZM186.5,517.7c0-.1,2.2-.3,2.6-.6-.3.8-.3,4.3-.6,4.6-.1.1-2.2.5-2.3.3.4-.7.1-4.2.3-4.4ZM184.1,512.3c-.2,1.4-.7,2.9-1,4.3-7.4,1.3-15.2-.4-22.5-1.8-.2-.4.5-4.8.9-5.3.4-.7,2.4-1.3,3.1-1.8,9.2-6.3,16.3-20.3,14.3-31.6,1.8,1.4,2.4,1.2,3.7-.5l2.7-4.2c.5,1.3,1,2.6,1.3,4.1.4,2.1.8,5.3.7,7.4-.5,9.3-1.5,20.1-3.2,29.4ZM184.7,518.3v4.4l-3.5.3c0-3.4-.7-5,3.5-4.7ZM179.8,518.6l-.3,4.4c-2.1.4-19.6-1.5-19.8-2.5.3-.7.2-3.8.8-3.9,6.4,1.1,12.8,2.4,19.3,2.1ZM192.6,475.5c-2.9-1.9-2.9-3.8-2.3-7,.5.4.9,1.5,1.2,2.2.5,1.5,1,3.2,1.1,4.8ZM199.1,446.7c.6,1.7,3.7,5.5,3.4,6.7-.4,1.3-2.7.8-3.3,1.4-1.2,1.1,1,3.6-3.2,3.2-.9,0-4.3-1.7-4.3-.1,0,1.3,5.3,2.1,6.4,1.6-.9,6.2-5.5,7-10.7,4.7-.7-.3-2.6-2.1-3.2-1.2-1.3,1.9,4.5,3.4,4.6,3.7l-.9,7.7c-.8-6.5-7.6-9-11.4-13.5.9-.9,1.9-1.9,2.6-3,.3-.5.6-1.8.6-1.9.2-.1,3.8,1.1,3.8-.7,0-1.2-1.6-.5-2.2-.6-4.5-.4-5.7-7.9-1-7.5,3.1.3,5.2,5.1,6.8-.2.7-2.5.6-5.1,1.3-7.6,1.4-.1,2.7,0,4.1-.1.9-.1,3.6-1.4,3.8-1.4,1,.3,2.1,7.4,2.6,8.8ZM174.1,453.9c-4.3-6.3-3.8-15.1,2.5-19.9,6-4.6,13.3-.6,20.1-3.2,1.2,4.8-1.7,6.6-6,7.1-2.6.4-3.5-1-4.1,2.5-.5,2.4-.3,5-1.2,7.4-4.2-3.5-10.2-3.3-9.3,3.6.2,1.6,2.3,3.8,2.3,4.1,0,.3-.8,1.6-1,1.6-.5,0-2.8-2.6-3.2-3.2ZM172.5,464.1l3-2,8.2,7.3c.6,1.2-2.2,4.7-2.9,5.8-3.6-2.1-4-6.2-6.7-9.3-.4-.4-1.9-1.3-1.6-1.7ZM171.1,465.6c2.1,1.4,3.7,3.8,4.6,6.2,3.9,9.4,1,18.8-4.6,26.7-2.4,3.4-5.7,7-9.4,8.8.8-2.3.9-5.7,2-7.8.4-.8,2.6-2.9,3.4-3.9,6.8-9.1,8.9-19.5-.1-28.1l4.2-1.9ZM151.2,478.1c-2.5,5.4-4.2,11.3-5.3,17.2-2,.1-3.9-.6-5.8-.9,2.4-6,4.3-14,11.1-16.3ZM144.2,519.5c-12.4-.9-6.7-16.1-4.7-23.6,2,.8,4,1,6.1.9-1.3,7.5-1.5,15.1-1.5,22.7ZM146,521.1c-.7-14.5,1-43.6,15.5-51.2,4.2-2.2,5-1.4,7.4,2.6,4.9,8.3,1.5,15.3-3.4,22.5-.5,0-.2-.6-.2-.9.8-3.2,2.7-6.6,3.7-9.8,0-1-.8-1.3-1.5-.5-5.9,13-8.8,27.2-9.9,41.5-3.5,1-7.3,1.2-11,.9-.2-.1-.6-4.3-.6-5ZM157.6,527v4.1c-.8.1-1.5.5-2.2.5-1.1.1-3.2.3-4.3.3-.8,0-4,0-4.2-.8-.3-.9.3-2.4-.3-3.3,3.7.1,7.4,0,11.1-.9ZM154.3,548.3c-.3-1.2-.2-2.9-.5-3.8-.2-.8-1.7-.7-1.7.2,0,1.9.9,4.1,1.2,5.8.1,1-1.4,0-1.7-.3-1.9-1.7-1.2-6-1.8-6.4-2.2-1.5-1.3,3.5-1.2,4.5-3.5-3.8-1.4-10.2-.9-14.9,3.5,0,7,.1,10.5-.6,1.5,4,4.3,8,2.3,12.5-3-.4-.6-4.9-1.2-6.8-.2-.7-1.1-.5-1.3-.1-.7.9-.5,6.8-.7,8.2-.3,3.6-1.5,7.8-3,1.6ZM152.2,622c-5.5.5-8.9-1.2-12.5-5.2-1.4-1.6-2-3.5-4.2-4.3-1.7-.6-2.1-.2-3.7-1.5-1.8-1.5-5.1-4.9-2.3-7,.5.5,1.1.9,1.6,1.3,4.6,3.9,10.5,12.8,16,14.3,3.3.9,7.1.6,10.5-.1-.4,1.8-3.8,2.4-5.4,2.6ZM151.2,611.4c.2.5-2.6,1.6-2.9,2.3-1.2,3.7,3.7-1,4.5-.9,1.2,0,4.9,2.9,5.1,4.5,0,.6,0,.3-.4.5-2.9,1.1-7.6,1.1-10.6,0-4-1.5-11.5-10.6-15.1-14-.5-.4-1.2-.6-1.3-1.2,0-.8,5.4-6.4,5.9-6.3,2.9,2.8,6.3,5.4,9.9,7.3,1,.5,2.2.6,2.8,1.4-1.1-.1-5.6,1-5.6,2.2,0,2,4.7-1.1,5.5-.4,1,2.2-.6,1.8-2.1,2.9-.7.6-1.9,1.2-.9,2,1.4,1,3.8-3.7,5,0ZM174.7,565.9c-.3.8-.7,1.5-1.1,2.3-.4.7-.8,1.5-1.2,2.2,0,0,0,0,0,0-.4.7-.8,1.3-1.2,2-.5.8-1,1.6-1.5,2.4-3.3,4.9-7.1,9.6-10.3,14.5-1.4,2-7.8,12.9-9,13.5-1.2.6-4.1-1.2-5.3-1.9-1.6-1-8.5-5.7-8.3-7.6,1.8-3.1,3.8-6.1,5.9-9.1h0c.6-.9,1.3-1.8,1.9-2.7.4-.5.8-1.1,1.1-1.6,0,0,0,0,0-.1.6-.8,1.2-1.6,1.7-2.5h0c.5-.7,1-1.4,1.5-2.2h0c.9-1.4,1.9-2.8,2.7-4.2,0-.1.1-.2.2-.3,4.8-7.9,5.6-12.6,6.9-21.7,0-.6,0-1.2,0-1.9,3.1,1.1,3.6-1.4,4.2-3.8l14.4,14.1c-.3,1.6-.7,3.1-1.1,4.5-.5,1.4-1,2.8-1.6,4.2ZM184.1,599.6c.1-2.9-.1-5.8,0-8.6.3-5.9,2.2-14.9,1.7-22.3,0-.6,0-1.2-.2-1.7,0-.5-.1-1-.2-1.4,0,0,0,0,0,0,0-.6-.2-1.1-.4-1.6-.2-.6-.3-1.1-.6-1.7-.2-.5-.5-1.1-.8-1.5-.3-.5-.7-1-1-1.4-1.8-2.1-4.2-3.5-6.2-5.4-2.4-2.3-12.6-11.4-13.7-13.4-.5-.9-3.5-9.4-3.5-10.2v-8c9.4,1.7,19.3,3.1,28.8,1.2l-.3,7.9c-1.3-.7-2.6-3.7-3.8-4.2-.9-.4-1.4.3-1.1,1.1,4,5.4,8.6,10.3,12.8,15.5,2.8,3.5,4.8,6.2,6.2,8.9.5,1,1,2.1,1.4,3.1.2.5.3,1,.5,1.5.2.6.3,1.1.4,1.7,0,0,0,0,0,0,0,.4.1.7.2,1.1,0,.6.2,1.2.2,1.9.1,1.5.2,3.2.2,5s0,1.1,0,1.7c-.1,7.8-1.2,15.8-1.8,23.6,0,1.1.3,3.2-.3,4.1-1.5,2.1-15.7,3.3-18.6,3.1ZM186.2,601.1c4.7.2,9.3-.7,13.9-1.5-.2.7.9,1.8.9,1.9,0,.3-5.4,4-2.5,4.2,1.5.1,2.6-4.4,4.8-1.6,0,.3-3.1,3.5-1.3,3.9,1.3.3,2.3-4.3,4.5-3.2.2.2-2.5,4.3,0,3.5.7-.2,1.7-3.4,2-3.7.8-.7,4.6,1,5.5,1.6.6.4,2.8,2.6,2.5,3.3-1.7,3.8-13.4,4-16.9,3.8-5.1-.3-10-2.5-15-3.5.3-2.9.7-5.9,1.5-8.7ZM216.3,613c-2.6,3.8-13.5,3.6-17.5,2.8-1-.2-3.5-1.3-4.3-1.3-1.5.1-1.2,2.1-1.7,2.6-1,1.1-6-.4-7.5-.6-.3-.2-.8-4.5-.5-5.2,9.9,3.4,22.4,6.4,31.9.6,0,.5-.2.8-.5,1.1Z"/>
        <path class="st0" d="M196,442.3c.6,0,1.1-.2,1.5.4,1.1,1.3-1.8,1.4-2.5,1.6s-1.8,1.4-2.3.6c-1-1.5,2.3-2.5,3.3-2.6Z"/>
        <path class="st0" d="M183.2,450.5c.3.3.3,1.2,0,1.3-.7.5-5.5-1.8-4-2.9s3.5,1,4,1.5Z"/>
        <path class="st0" d="M196.1,446.6c.1.2.7,4-.7,3.8s-.7-2.9-.8-3.8c.3,0,1.4,0,1.5,0Z"/>
      </g>
      <g>
        <path class="st1" d="M490.6,391.7c-.2-1.3-1.3-5.6-7.8-6.2-2.7-.2-6.1-.3-8.4-.3-3.4,0-7.1.1-9.9.3h0c-3,.2-8,.5-10.7,6.1-1,2-1.8,4.8-2.5,7.2-.3.9-.5,1.8-.8,2.5-1.5,4.8-3,9.6-4.2,14.3-2.7-3.6-7.3-5.7-13.2-5.7s-6.4.6-9.2,1.8c-1.1.4-2,.9-2.9,1.4,0-2.3,0-4.6-.5-7,1-.2,1.9-.6,2.8-1.1,3.3-1.9,6.6-6.3,5.9-13.2-.1-.9-.4-1.8-.6-2.5,0-.3.2-.7.3-1.1.2-.2.5-.3.8-.6,1.6-1.3,2.6-3.2,2.7-5.3.1-3-1.7-5.1-3.1-6.9-.3-.3-.7-.8-.9-1.1,0,0,0-.2,0-.3,2.2-.5,4.5-1.2,6.7-2.1,1.9-.8,5.8-2.4,6.1-6.6.1-1.9-.5-4.6-4.3-6.8-2.6-1.5-5.1-1.8-7.2-2-.4,0-.8,0-1.2-.1h-.8c0-.1-.8,0-.8,0l-4.9.8c-1.7-2-4-3.6-6.8-4.8-2.9-1.3-6-1.9-9.2-1.9s-8.2,1.1-11.6,3.1c-3.3,2-6,4.8-7.8,8.2-2.4-.8-5-1.2-7.4-1.2-6.2,0-11.7,2.8-14.9,7.6-2.8,4.2-3.8,9.1-2.9,13.8-1.8,1.1-3.6,2.5-5.2,4.2-3,3.2-5.1,7.2-5.8,10.9-.2,1.3-.2,2.5-.2,3.4,0,.2,0,.6,0,.8-.2.5-.7,1.4-1,2-.9,1.8-1.9,3.6-2.4,5.2-2.6,8.3-5.1,24.6-4.2,33.1,1,10.5,11.7,16.1,22.1,16.5.5,3.9,1.9,7.3,4.3,9.8,0,0,0,.2,0,.3-1.3,7.2-2.5,14-5.4,20.1-2.1,4.4-5.3,8.5-8.6,12.8-1.1,1.4-2.2,2.9-3.3,4.3-.6.9-1.3,1.7-1.9,2.6-.5.7-1,1.4-1.4,2.1-.6.9-1.2,1.8-1.8,2.8-.4.7-.8,1.4-1.2,2,0,0,0,.1,0,.2h0c-.4.7-.9,1.5-1.3,2.2h0c-.4.7-.8,1.4-1.2,2.1-.3.5-.6,1-.9,1.5-1.2,2-2.3,4-3.5,5.9-.9,1.5-1.1,3.2-.7,4.8-.1.2-.3.3-.4.5-.7,1-2.4,3.7-3.9,6.4-3,5.1-3.5,6.9-3.5,8.6,0,1.2,0,3.4,5.5,8.2,3.1,2.7,5.8,4.5,8.7,4.5s.3,0,.4,0c.1,0,.3,0,.4,0,4.6,3.8,12,6.5,18,6.5s.7,0,1.1,0c3.7-.2,14.9-2.5,17.8-9.7.9-2.1,1.7-6.3-2.6-10.8-2.7-2.9-6.3-4.4-9.9-5.3.1-.2.3-.4.5-.7.1-.2.3-.5.4-.6,6.4-8.8,13.8-20.4,20.2-31.3.4-.7.8-1.3,1.2-2,.2-.3.4-.6.5-.9,0,0,0,0,0-.1,0,0,0-.1,0-.2.5-1,1.1-1.9,1.6-2.9.1-.2.2-.4.3-.6.7-1.2,1.3-2.4,1.9-3.6,2.5-5,4.5-9.6,6-14l7,2.4-3.1,10.8-1,3.5v.5c-.1,0-.9,2.8-.9,2.8v.2c0,0,0,0,0,0l-.8,2.9-2.6,8.8-.4,1.4.4,1.4c0,.4,0,1-.5,2.3-.2.8-.5,1.6-.7,2.6l-.2,1c-.5,2.4-1.1,5-1.4,7.5-1,7.3-.7,9.4.3,11.2,2.7,4.7,10.1,5.2,13.1,5.2s3.8-.2,5.1-.8c.8-.3,1.4-.6,1.9-1,.5.1,1,.2,1.5.3.9,0,1.9.1,3,.1,4.9,0,18.2-1.1,24.7-6,.5-.4.9-.7,1.3-1.1,2.1-2.2,3.1-5.1,2.7-8.2h0c0,0,0-.1,0-.2-.5-3.7-3-7.3-6.2-9.2-2.4-1.4-4.8-2-7.5-2s-2.4.1-3.4.3c-.5,0-.9.1-1.4.1,0,0,0,0,0,0,0-.3.2-.5.2-.7,2-5.2,3.8-10.8,5.3-15.9.3-1,.6-1.9.9-2.8,0,0,0-.1,0-.2,0,0,0-.1,0-.2.3-1,.6-1.9.8-2.8,0-.2.1-.4.2-.6.3-1.2.7-2.4,1-3.5.6-2,1-3.7,1.4-5.2,0-.4.2-.8.3-1.2,1.7-6.4,4.6-17.1-1.9-23.6-3-3.1-9.7-6.1-16.9-9.2-.8-.3-1.5-.6-2.1-.9-.8-.4-1.6-.7-2.4-1.1,6.5-1,12.9-2.7,18.2-5.9,2-1.2,3.2-2.4,4.2-3.4,1-1,1.5-1.5,2.7-2,1.5-.6,3.1-.9,4.7-1.2,3.4-.7,7.3-1.5,11.5-5,.5-.4,1.1-1,1.7-1.8.8-.1,1.9-.4,2.9-.9,1-.5,1.9-1.3,2.7-2.1.4,0,.8,0,1.3,0s.5,0,.7,0c6.8-.6,8.8-5.5,9.9-8.5,0-.2.2-.4.2-.6,1.2-3,2.3-6.2,3.3-9.2.7-2.2,1.4-4.2,2.1-6.2.1-.4.5-1.4,1-2.4,3.4-8.4,3.8-9.7,3.5-11.6ZM417.8,388.3s0,0,0,0,0,0,0,0h-.1Z"/>
        <g>
          <path class="st0" d="M482.4,390.8c-4.7-.4-12.7-.3-17.5,0-2.8.2-5,.3-6.3,3-1.1,2.3-2.1,6.4-3,9-2.2,6.7-4.1,13.5-5.8,20.3l-6.4-.3c-.6-8.5-11.3-8.9-17.6-6.4-4.3,1.7-6.1,4.2-9.5,6.5-.4.2-.7.5-1.2.4.2-8,1.8-16.2-2.3-23.6,2.7.7,5.1,1.9,7.8.3,2.7-1.5,3.5-5.1,3.2-8,0-1.1-.8-2.5-.8-3.3,0-.7.5-1.1.6-1.7.1-.7-.1-1.6,0-2.3.3-.9,3.3-.9,3.4-3,0-1.6-2.9-3.9-3.5-5.6-.8-2,0-4.4-1.3-6.4,3.6-.8,7.5-1.5,10.9-2.9,2.3-.9,4.4-1.9,1.2-3.8-2-1.2-4.1-1.1-6.4-1.4l-8.3,1.4c-1.2-2.8-3.6-4.6-6.3-5.8-9.9-4.3-22.1,1.1-23.4,12.2l-4.4-2.5c-5.9-2.1-12.9-1.4-16.5,4.1-2.9,4.4-3.1,9.4-.6,14.1-5.7.6-11.4,7.4-12.4,12.8-.3,1.5,0,3.1-.2,4.5-.3,1.2-2.8,5.4-3.5,7.6-2.4,7.6-4.8,23.2-4,31,1,9.6,14.2,13,22.1,11.2-.7,4.9.1,10.7,4.7,13.6-1.5,8.4-2.7,16.9-6.5,24.7-2.1,4.4-5.1,8.4-8.1,12.4-1.1,1.5-2.3,2.9-3.4,4.4-.5.7-1.1,1.5-1.6,2.2-.4.5-.7,1-1.1,1.5-.2.3-.4.6-.6.9,0,0,0,0,0,.1-.4.5-.7,1.1-1.1,1.6h0c-.5.8-1,1.6-1.5,2.4h0c-2.8,4.5-5.3,9.1-8.1,13.7-.6.9,1.4,1.9,1.4,2.2,0,.2-2.2,2.7-2.5,3.3-1.2,1.8-6.5,10.3-6.5,11.9,0,.8,2.9,3.5,3.7,4.2,1.1,1,3.8,3.3,5.2,3.2.9,0,1.6-1.3,2-1.2.1,0,1.2,1.5,1.6,1.9,3.8,3.4,10.8,6,15.9,5.7,5.3-.3,18.2-4.6,11.6-11.6-2.8-3-7.8-4-11.8-4.5-1-.5-2-3.9-1.7-4.9.2-.6,1.6-.9,2.2-1.4.5-.4,1.4-1.9,1.8-2.5,5.8-8.1,12.3-18.2,17.8-27.3.6-1,1.2-1.9,1.7-2.9,0,0,0-.2.1-.2,0,0,0,0,0-.1.5-.8.9-1.5,1.3-2.2.1-.2.2-.4.3-.6.1-.2.3-.5.4-.7.7-1.2,1.4-2.4,2-3.7,3.6-6.7,6.7-13.7,8.6-21l.4-.5,16.2,5.6.5.7-3.8,13.2-1,3.5v.4c-.1,0-1,2.8-1,2.8v.2c0,0-.9,2.9-.9,2.9l-3.1,10.8c.7,2.6-.5,4.7-1.1,7.3-.6,2.6-1.2,5.4-1.6,8.1-.2,1.5-.9,6.8-.3,7.8,1.4,2.4,9.4,3,11.7,2.1,1.5-.6,2-2.2,2.2-2.3.4,0,2.7,1.1,3.8,1.2,5.7.6,20.4-1.2,24.6-5.4,2.7-2.8.6-7.5-2.4-9.2-3.9-2.2-6.6-1-10.5-.8-3.5.1-4.6-1.3-6.8-3.6,1.9,0,2.3-2.8,2.9-4.4,1.6-4.2,3.1-8.8,4.6-13.5.3-.9.6-1.9.9-2.9,0,0,0,0,0,0,0,0,0-.1,0-.2.3-.9.6-1.9.8-2.8,0-.2,0-.3.1-.5.3-1.2.7-2.3,1-3.5.7-2.5,1.4-4.9,2-7.2,1.5-5.7,4.5-15-.2-19.7-3-3-13-7-17.3-8.9-4.2-1.9-8.5-3.5-12.7-5.3.8-1.4,1.2-3.2,1.5-4.8,8.6-.6,19-1.8,26.5-6.3,3.3-2,3.9-4.2,7.7-5.7,5.4-2.1,9.8-1.2,14.8-5.3.6-.5,2.2-2.6,2.4-2.7.4-.2,2-.1,3.2-.7,1.1-.6,2.8-2.7,3-2.8.7-.2,2.6.3,3.7.2,3.8-.3,4.4-2.7,5.6-5.7,2-4.9,3.5-10.3,5.4-15.3.6-1.7,4.4-10.5,4.2-11.4-.2-1.2-1.9-1.6-3-1.7ZM417.7,424c.2-.5,3.3-2.8,4-3.3,4.6-3.1,10.1-5.3,15.6-3.3,1.6.6,3.8,1.8,4.1,3.6-2.1-1.9-5.1-3.5-8-3.5s-4.1.2-3.4,2c3.9-.7,7.9,0,10.5,3.2-2.2-.1-3.9-1.7-6-2-.9-.1-3.5-.4-3.7.8-.3,1.4,1.8.9,2.9.9.4,0,1.1-.2,1,.3-2.6.5-5,1.7-7,3.4-.9.7-1.6,1.8-2.5,2.5-2.1,1.7-4.3,2.4-6.8,3.2.1-1.7-1.3-6.6-.7-7.9ZM434.2,428.4c0,.4-.5.4-.8.5-2.2.9-4.9,1.4-7.3,1.5,2-3.7,4.8-1.8,8.1-2ZM413.4,423.7l-1.4.3c-.1-6.2,1.2-13.2-.4-19.3-1.7-6.7-8.3-10.9-13.3-15,1.2-.8,1.9-3.9,2.4-4.5.4-.4,1.6,0,1.7-1.1.1-1.6-1.2-.7-1.9-.7-3.3,0-4.8-7.2-.7-8.1,4-.8,3.8,7.3,4.1,9.6.3,1.7.5,3.5,1,5.1,1.4,4.4,4.8,7.2,6.9,11.2,3.6,7,2,14.8,1.7,22.3ZM382,397.2c5-9.2,15.9-2.2,19.4,4.7,3,5.9,3.2,17.7-1.2,23-.5.6-2.2,1.3-2.7.9-.2-.1-.7-3.4-.6-3.9.2-.9,1.2-2.8,1.5-4,2.7-11-3.1-25-16.4-20.6ZM404.7,418.5c2.2-9.8-.6-21.1-10.1-25.7,1.4-1.2,1.9-2.2,3.6-1.1,2.6,1.7,7.2,5.8,9.2,8.3,5.3,6.6,2.9,16.5,2.9,24.3l-8.2.9c.9-2.3,2-4.2,2.5-6.6ZM413.6,398.1c-4.1-2-6.6-5.9-7.5-10.2-1-4.5,0-10.3-3.6-13.6l3.8-1c0,4,.3,13,5.2,14.1,2.9.7,3.2-1.1,5.5-1.8,1.6-.5,3.4-.3,5-.7.1,2.1.1,3.2-2.2,3.5-.4,0-1.1-.1-1.7-.1h-.2c-.6,0-1,.1-1.1.6-.3,1.4,4.2,1.2,5,.7,2,6.5-.8,12-8.1,8.5ZM425.1,381.9c-.5,1.6-7.1,1.7-8.7,2.1-2.7.8-3.7,3.6-6.3.6-2.4-2.7-1.8-8.3-2.5-11.6l6.1-1.2c-.8.7-.9,2.7.4,2.3.4-.1.7-1.3,1.6-1.6.8-.3,1.5.2,2.3-.1-.8-1.5.9-2.4,2.1-2,1.2.4,1.2,5.2,1.8,6.7.5,1.2,3.3,3.9,3,4.8ZM420.9,364.6c4-1.1,8.8-2.1,12.6.1,0,1.3-23.1,6-25.6,6.6,3.3-3.3,8.5-5.5,13-6.7ZM391.1,370.8c.3-2.5,1.9-6.2,3.5-8.1,5.8-7,18.8-7,23.6,1-5,1.7-10,4.2-13.5,8.2l-13.6,3.1c.1-1.3-.2-2.9,0-4.2ZM391.7,376.7c.6-.2,4.7-1.2,4.9-1.1-1.4,2-1.1,5.3.2,7.3.8,1.3,2.5,1.4,2,2.9-.7,2.5-4.1,5.3-6.7,5.5-1.3.1-2.3-.3-3.5-.3-2.3,0-4.6,1.1-6.2,2.6-.5-1.5-.1-3.4.5-4.9,1.1-2.4,3.8-3.3,5.2-5.5,1.3-2,1.5-5.7,3.6-6.6ZM369.4,373.7c2.5-5.6,8.7-7.2,14.3-5.5,4.1,1.2,6.4,3.3,5.5,7.9,0,.6-2.1,5.4-2.5,6-.5.9-1.2,1.5-1.9,2.2l-2.9,2.2c4.4-3.7,5.2-13.6-1.1-15.6-5.9-1.9-10.7,3.8-9.2,9.5.8,3.2,5,4.2,7.7,2.5,4-2.7,1.5-9.8-2.5-7.5-2.7,1.6-.7,5.4.4,3.9-.1-1.1,0-3.6,1.8-2.4,2.1,1.6-.2,6.8-4.2,4.7-3.9-2.1-.9-8.9,3-9.4,8.6-1.1,7.3,13.5-.4,14.8-8.1,1.3-10.9-6.8-8-13.2ZM369.4,386.7c1.1,0,1.9,1.1,3.1,1.6,2.8,1.2,5.9,1.2,8.7.4-1.4,2,0,5.1-.3,6.8,0,.2-1.9,3.5-2,3.7-.2.2-.4,0-.6-.2-.5-.5-.8-1.1-1.4-1.7-3.5-3-9.4-2.4-13.3-.5l-6.2,3.9c0-5.4,6.4-14.3,12.1-14ZM351.8,419c1.8-9.5,4.4-18.9,15-21.7,3.2-.8,10.7-.3,10.4,4.3,0,1.1-2.4,5.7-2.9,7.2-3.6,10.3-5.6,21.3-5.5,32.2-6.6,1.2-13.5-.6-19.2-3.9.7-6.1,1-12.2,2.1-18.2ZM349.7,439.2c5.7,3.2,12.8,4.7,19.2,3.8-.1,2.6.1,5.3.6,7.9-8.1,1.3-19.5-1.9-19.8-11.7ZM370.4,442.7c.2-.2,4.1-1,4.7-1.6l6.4-4.2c-.2.8,1.1,2.9,1.1,3.4-.1,1.3-10,7-11.9,7.1.3-.9-.7-4.1-.3-4.6ZM375.6,553.4c-1.3,3.6-7.7,5.5-11.2,5.8-4.9.4-12.2-1.9-15.7-5.5-.6-.6-1.4-2.4-2.1-2.6-1.2-.3-1.5,2.2-3.2,1.5-.9-.4-6.2-5.1-6.2-5.7,0-.6,1.1-1.8,1.3-2.5,9.8,5.8,17.5,16.7,30.3,12.8,2.5-.8,4.8-2.2,6.9-3.8ZM359.4,549c-.1.4-.1.8.3.9,1.6.5,2.5-2.6,3.6-3,2.7-1.1,10,2,11.6,4.7,0,.6-4.1,3-4.8,3.3-12.9,5.7-21.1-6.2-30.9-12,1.9-3.4,4-6.8,6.5-9.8,4.4,2.9,9.2,5.9,14.7,6.4,0,2.3-1,1.7-2.6,2.5-.4.2-2.2,1.2-2.3,1.5-.2.5-.3,1.3.4,1.3,1.5,0,2.6-1.6,4-1.8.3,0,.7-.3.8.2.2,1-5.4,3.2-4.1,4.5.9.9,4.5-2.6,4.8-2.6,1.6,0-2,3.7-2.1,4ZM387.7,498.5c-.7,1.2-1.3,2.5-2,3.7-.1.2-.3.5-.4.7-.5,1-1.1,1.9-1.7,2.8,0,0,0,0,0,.1,0,0-.1.2-.2.3-.6,1-1.2,1.9-1.8,2.9-6,9.6-12.6,18.8-18.6,28.4-1.3,1.1-4.5.1-6-.4-1.8-.6-4-1.6-5.7-2.5-1.1-.6-5.4-3.2-5.9-4-.3-.4-.4-.6-.2-1,2.9-4.8,5.6-9.6,8.6-14.3h0c.5-.8,1.1-1.7,1.6-2.5.2-.2.3-.5.5-.8.2-.2.3-.5.5-.8,0,0,0,0,0,0,.6-.9,1.2-1.7,1.8-2.5.5-.7,1-1.3,1.5-1.9,1.1-1.4,2.2-2.8,3.3-4.3,2.6-3.5,5.1-7.1,7-10.9,3.7-7.6,5.1-16,6.3-24.3l20.8,8.8c-2.3,8-5.6,15.4-9.5,22.6ZM444.2,531.8c1,1.4-.6,2.8-1.7,3.5-4.4,2.9-18.2,5.4-23.2,3.8-1.5-.5-2.7-2.1-4-.6-.4.5-.4,1.3-.9,1.7-1.7,1.3-6.7.6-8.6-.1-.5-.2-1.5-.5-1.6-1-.2-.6-.2-3.4.4-3.6,5.2.4,10.5,1.3,15.7,1.7,6.9.5,13.9.7,20.1-2.9,1.3-.8,2.5-1.8,3.7-2.7ZM425.3,524.5c.4,0,.3.4.2.8-.3.8-2.3,3.9-1.5,4.5,1.5,1,2.8-3.9,3-3.8.2.4,1.2.7,1.2,1,.1.7-2,3.7-.6,4.2,1.6.6,1.5-2.6,2.2-3.7,3.9-.2,8.9-1.7,12.3.8,1.9,1.4,1.3,1.9-.3,3.2-6.9,5.7-17.6,4.5-25.9,3.8-3.8-.3-7.7-1-11.5-1.5l3.2-13.9c3,.7,5.9,1.8,8.9,2.2,1.4.2,6.1.1,6.8.5.1,0,.6.5.6.6,0,.3-3,3-3.2,3.8-.2,1.2.9,1.1,1.6.6.5-.4,2.4-3.1,2.9-3.1ZM417.2,458.9c4.1,1.7,8.5,3.7,12.4,5.6,9.2,4.6,9.9,6.9,7.6,17.2-.9,4.1-2.1,8.4-3.5,12.7-.4,1.2-.7,2.3-1.1,3.5,0,.1-.1.3-.2.5-.3.9-.6,1.9-.9,2.8,0,0,0,.1,0,.2,0,0,0,0,0,0-.3,1-.6,1.9-.9,2.9-.3,1.1-.7,2.1-1,3.2-1.3,4.2-2.7,8.4-4.2,12.5-5.9,1.6-12.6.2-18-2.5l3.3-11.7.8-2.9v-.2c0,0,.8-2.8.8-2.8v-.4c.1,0,1.1-3.5,1.1-3.5l4-14.4c-.3-.6-10.6-3.9-12.2-4.4-7.7-2.8-16.2-6-23.6-9.6-8.1-4-11-7-9.5-16.9,7.2,4.2,16.1,5.4,24.3,5,2.2-.1,8-1.6,9.5-1.3,2.5.4,8.6,3.3,11.3,4.5ZM405.9,452.4c-11.1,2.9-23.7,2.5-33.8-3.3,3.6-2.5,8.2-3.9,11.2-7.3,3,5.3,10.9,2.9,15.7,1.7,3.3-.9,6.5-2.3,9.8-3.1-.5,4.1-1.4,8.2-2.9,12ZM397.8,442c-3.6.9-10.1,3-12.7-.5-3.4-4.5-5.7-20.2-6.3-26.1,0-.9.2-2.4,0-3.2-.2-.7-1.5-.8-1.7.2-.2.8.2,3.9.3,5,.5,5.8,2,11.5,3.2,17.1-2.5,3.1-6.2,5.4-10.1,6.3.2-10.2,1.9-20.8,5.2-30.5.4-1.3,3.9-9.9,4.4-10.3.2-.2.8,0,1.1-.2,1.2-.7,2.4-1.6,3.8-1.8,11-1.7,14.3,12.1,11.7,20.3l-.6-3.4c-.2-1.2.6-4.7-.8-5.1-.4-.1-.6,0-.8.2-.5.8.6,10.9.8,12.6.2,1.1.5,2.3.8,3.4-1.3.2-7.2,1.6-7.5,2.8-.6,2.1,4.5-.4,5.5-.6,7.2-2,14.7-2.4,22.1-3.4-.3,2.8,1.1,6,1.2,8.6,0,.9-1.2,1.4-1.9,1.8-4.6,2.5-12.4,5-17.5,6.4ZM433.9,440.8c-4.9,2.7-11.9,4.2-17.4,5-2.4.3-4.7.7-7.1.6.7-1.4.6-6,1.3-7,.3-.4,6.4-2.6,7.7-3.7,1.2-.9.7-1.1.6-2.5l13.1-2.3c-.2,2.8.9,5.2,3.1,7,.5.4,1.3.5,1.3.6.5.6-2.1,1.9-2.6,2.2ZM442.5,434.6c-1.2.5-4.1,2.4-4.8,2.5-2.5.5-4.8-5-3.8-6.6.1-.2,3.7-1.6,4.2-2l14.7-.4c-.5.7-1.7,1.2-2.4,1.5-.8.3-4.4.8-3.4,2.2.1.1.3.2.6.2h.1c1.5,0,4.7-1.6,5.5-2,1.6-.9,2.8-2.7,4.9-1.8-4.1,5-10.2,4.3-15.5,6.3ZM459.9,426.6c-1.4.1-2.3-.3-3.5-.3-5.5,0-10.9.5-16.3.6-3.4,0-6.7-.3-10.1-.3l2.3-1.3c5.2-2,11.8-.5,17.3-.4,4.8,0,9.6-.5,14.4-.3-.8,1.3-2.8,1.9-4.2,2ZM483.5,393.1l-10.6,28.2c-.3.5-.9,1.3-1.4,1.5-.4.1-3.4.4-4,.4-.9,0-1.7-.3-2.6-.3-4.5,0-9,.4-13.6.3,1.6-4.9,2.8-9.9,4.3-14.8,1.2-4,2.6-9.5,4.3-13.2.3-.7.8-1.6,1.5-2,.3-.1,2.1-.6,2.3-.6h19.5c0,0,.5.4.3.6Z"/>
          <path class="st0" d="M368.2,412.2c-.3-.4-1.4-.8-1.9-.9-1.1-.3-6.5-.8-7.4-.5-.4.1-.8.4-1,.8-1,4-2.4,8-3.2,12-.9,4.6-2.3,9.6,3.6,11.2,8.9,2.3,8.1-5.4,9.1-11.3.4-2.5,2.3-9.4.7-11.2ZM360.3,433.3c-7.5-.5-3.8-8.1-3.1-12.8,2.3,2.2,5.7,3.2,8.7,2-1,4,.3,11.2-5.7,10.8ZM366.3,420c-1.6,2.9-8.5.5-8.3-2.2,0-.7,1.4-5.3,1.8-5.5.8-.3,6.5.3,7.1,1,.8.9,0,5.7-.6,6.7Z"/>
          <path class="st0" d="M416.1,377.9c-.5-.3-.6-3.4.7-3.2s1,4.3-.7,3.2Z"/>
          <path class="st0" d="M400,379.5c-.3-.4-1.6-.7-1.4-1.7.5-1.8,4.7,1.8,3.6,3.4s-1.9-1.2-2.3-1.7Z"/>
        </g>
      </g>
    </g>
  </g>
</svg>