<?xml version="1.0" encoding="UTF-8"?>
<svg id="Calque_1" xmlns="http://www.w3.org/2000/svg" xmlns:xlink="http://www.w3.org/1999/xlink" version="1.1" viewBox="0 0 2430.5 2325">
  <!-- Generator: Adobe Illustrator 29.3.0, SVG Export Plug-In . SVG Version: 2.1.0 Build 146)  -->
  <defs>
    <style>
      .st0 {
        fill: #264f0b;
      }

      .st1 {
        fill: #fe6c23;
      }

      .st2 {
        clip-path: url(#clippath);
      }
    </style>
    <clipPath id="clippath">
      <rect class="st1" x="-615" y="700.3" width="422.7" height="843.1" rx="28.3" ry="28.3"/>
    </clipPath>
  </defs>
  <g>
    <rect class="st1" x="-615" y="700.3" width="422.7" height="843.1" rx="28.3" ry="28.3"/>
    <g class="st2">
      <image width="5536" height="4160" transform="translate(-985.9 656.9) scale(.3)" xlink:href="../PAGE_PARCOURS/parcours-compeÌtences-laptop.jpg"/>
    </g>
  </g>
  <path class="st1" d="M1652.8,1179.4h-83.6c-3.5,0-6.9-.9-9.8-2.7l-82.5-49.8-77.9,18.6c-4.4,1.1-9.1.5-13.1-1.6l-137.5-70.6c-6.8-3.5-10.9-10.8-10.3-18.4l27-341.8-49.3-32.9c-5.7-3.8-8.9-10.4-8.4-17.3l3-38.9-24.5-42.6-172.2-56.3c-8.1-2.6-13.4-10.3-13.1-18.8l1-25h-.4c-10.5,0-19-8.5-19-19v-47.1c0-10.5,8.5-19,19-19h75.4l34.7-19.4c5.4-3,11.9-3.2,17.4-.6l42.1,20h77.2l-19-97.8c-1.7-8.7,2.9-17.5,11-21l29.7-13c6.2-2.7,13.5-1.9,19,2.2l64.8,48.2,41.7-12.4-4.3-15.5c-2.5-9.1,2-18.7,10.7-22.5l112.4-49,1.9-90c.2-7.6,4.8-14.4,11.9-17.2l60.1-24.1c8.1-3.3,17.4-.6,22.5,6.5l31.8,44.2,115.2,89.4,41.4-9.2c7.3-1.6,14.8,1.2,19.3,7.1l40,53.3,63,9.9c2.5.4,5,1.3,7.1,2.7l76.8,48.2,67,12.3c5.6,1,10.5,4.6,13.2,9.6,2.7,5,3.1,11,.9,16.3l-43,103.8,3.5,70c.5,10.2-7.1,18.9-17.3,19.9l-31.7,2.9-64.9,99.2c3.5-2,7.7-2.9,11.8-2.4,6,.8,11.3,4.3,14.2,9.6l35.3,63.2c3.2,5.7,3.2,12.7,0,18.4l-9.9,18,19.3,36.3c4.7,8.8,1.8,19.7-6.6,25l-21.6,13.6,15.9,37.1c.8,2,1.4,4.1,1.5,6.2l2.8,41.8,55.2,13.4c7,1.7,12.5,7.2,14,14.3,1.6,7-1,14.4-6.6,18.9l-146.8,118.9c-4.9,4-11.5,5.3-17.6,3.4l-163.7-51.1-45.5,32.7-13.5,76c-1.6,9.1-9.5,15.7-18.7,15.7ZM1574.5,1141.4h62.4l12.1-67.9c.9-4.9,3.6-9.2,7.6-12.1l59.4-42.7c4.8-3.5,11-4.5,16.7-2.7l163.1,50.8,109-88.3-31.4-7.6c-8.1-2-13.9-8.9-14.5-17.2l-3.5-52.5-21-49c-3.7-8.6-.6-18.6,7.3-23.5l20.4-12.9-15.9-29.8c-3-5.7-3-12.5.1-18.1l9.8-17.8-17.6-31.4-15.7,16.5c-7.1,7.5-18.9,7.9-26.6,1l-20.4-18.6c-6.9-6.3-8.2-16.6-3.1-24.5l98.5-150.5c3.2-4.9,8.4-8,14.2-8.5l22.7-2.1-2.8-56.1c-.1-2.8.3-5.6,1.4-8.2l35.6-86-47.5-8.7c-2.4-.4-4.6-1.3-6.7-2.6l-76.6-48.1-66.7-10.5c-4.9-.8-9.3-3.4-12.2-7.4l-37.2-49.6-38.2,8.5c-5.5,1.2-11.3,0-15.8-3.5l-124.5-96.6c-1.4-1.1-2.7-2.4-3.8-3.9l-24.7-34.4-34.6,13.9-1.8,89.6c-.2,7.4-4.6,14.1-11.4,17l-108.5,47.3,4.9,17.5c2.8,10-3,20.3-12.9,23.3l-68.7,20.4c-5.7,1.7-11.9.6-16.8-3l-63.6-47.3-5.7,2.5,20.5,105.5c1.1,5.6-.4,11.3-4,15.7s-9,6.9-14.7,6.9h-104.5c-2.8,0-5.6-.6-8.2-1.8l-37.1-17.6-30.5,17c-2.8,1.6-6,2.4-9.3,2.4h-61.4v9.1h18.9c10,0,18.2,7.7,19,17.6l1.1,16.1c.4,5.3-1.5,10.4-5,14.3-2,2.1-4.4,3.7-7,4.8l157.5,51.5c4.5,1.5,8.2,4.5,10.6,8.6l31,54c1.9,3.3,2.8,7.1,2.5,10.9l-2.6,33.7,49.3,32.9c5.7,3.8,8.9,10.4,8.4,17.3l-26.9,340.3,120,61.6,78.6-18.8c4.9-1.2,10-.4,14.2,2.2l84.6,51.1Z"/>
  <path class="st1" d="M813.1,2093.6c-5.9,0-11.7-2.7-15.4-7.9l-94.1-129.9-58.9-21.4c-6.4-2.3-11-7.8-12.2-14.5l-9.8-54.6c-1-5.5.5-11.2,4.1-15.5l31.8-38.2-17.3-44.2c-1.8-4.6-1.8-9.7.1-14.2l29.2-70.1-44.7-63.8c-4.1-5.8-4.6-13.4-1.3-19.7,3.3-6.3,9.8-10.2,16.9-10.2h42.6l26.5-152c.7-3.9,2.5-7.4,5.3-10.2l39.6-39.6-73.4-35.3h-73.7c-2.1,0-4.1-.3-6.1-1l-81-27.3c-7-2.4-12-8.6-12.8-16l-12.7-121c-.5-4.6.8-9.3,3.5-13.1l25.4-35.1c1.9-2.6,4.5-4.7,7.4-6.1l109.2-50.7c5.1-2.4,11-2.4,16.1,0l72.2,34.2,161.1,36,194.3-13.5c.7,0,1.4,0,2.1,0l93.6,3.9c3.6.1,7,1.3,10,3.3l94.8,65.1,171.9,3.8c.6,0,1.2,0,1.8.1l200.9,23.4c10.2,1.2,17.6,10.3,16.7,20.6l-9.8,109.2c-.6,6.4-4.4,12.1-10.1,15.1l-163.6,85.6-117.6,170.1,45.4,87.4c4,7.7,2.3,17.1-4.2,22.9l-70.2,62.8-25.8,82.8c-1.6,5.3-5.5,9.6-10.6,11.8l-53.1,23-69,110.1c-3.1,4.9-8.1,8.1-13.8,8.8-5.7.7-11.4-1.3-15.5-5.3l-34-33.2-196.2,11-105,69.3c-3.2,2.1-6.9,3.1-10.5,3.1ZM668,1902.4l54.1,19.7c3.6,1.3,6.7,3.6,8.9,6.7l86.9,119.9,94.1-62.2c2.8-1.9,6.1-2.9,9.4-3.1l209.7-11.7c5.3-.3,10.5,1.7,14.3,5.4l23.2,22.6,59.7-95.2c2-3.3,5-5.8,8.5-7.3l50.5-21.9,24.7-79.5c1-3.3,2.9-6.2,5.5-8.5l63.1-56.5-43.9-84.5c-3.2-6.2-2.8-13.8,1.2-19.6l126.8-183.4c1.8-2.5,4.1-4.6,6.8-6l158.6-83,7.2-80.5-181.7-21.2-176.6-3.9c-3.7,0-7.3-1.2-10.3-3.3l-95-65.2-87.1-3.6-196,13.6c-1.8.1-3.7,0-5.5-.4l-165.8-37.1c-1.4-.3-2.7-.8-4-1.4l-66.1-31.3-96.7,44.9-18.2,25.2,10.7,101.6,66.5,22.4h74.9c2.9,0,5.7.6,8.2,1.9l101.4,48.8c5.6,2.7,9.5,7.9,10.5,13.9,1,6.1-.9,12.3-5.3,16.6l-54.3,54.3-28.2,161.9c-1.6,9.1-9.5,15.7-18.7,15.7h-22l29.8,42.5c3.7,5.3,4.5,12.2,2,18.2l-30.2,72.7,18.7,47.5c2.5,6.5,1.4,13.8-3.1,19.1l-33.4,40,6.3,35.1Z"/>
  <path class="st1" d="M282.2,2242.5c-5.2,0-10.3-2.2-14-6.1-4.9-5.3-6.3-12.9-3.8-19.7l25-65.1,1.7-111.8c0-.7,0-1.3.1-2l4.9-40.7-31.5,5.8c-6.5,1.2-13.2-1.1-17.6-6-4.4-4.9-6-11.8-4-18.1l8.4-27.9h-21.2c-5.7,0-11.2-2.6-14.8-7.1-3.6-4.5-5-10.3-3.8-15.9l22.3-103c.2-1,.5-2,.9-3l63.7-160,13.3-106.6-20.5-130c-1-6.6,1.4-13.2,6.5-17.5l59.3-50.2c5.2-4.4,12.4-5.7,18.9-3.3l36.6,13.6c7.8,2.9,12.8,10.5,12.4,18.7l-.9,18.8,52,5.7,12.7-16.1c3.6-4.6,9.1-7.3,14.9-7.3h80.3c7.9,0,14.9,4.9,17.8,12.2l10.8,28.4,26.9,9.3c5,1.7,9.1,5.5,11.2,10.4,2.1,4.9,2.1,10.5-.1,15.3l-28.3,62.8c-1.4,3.2-3.8,5.9-6.7,7.9l-44.5,30.1,12.5,101.9c.3,2.6.1,5.2-.6,7.7l-17.5,59.3c0,.2,0,.3-.1.5l-15.7,48.9c-2.2,6.7-7.9,11.7-14.9,12.9l-32.3,5.5,16.1,24.1,37.8,20.7c6.1,3.3,9.9,9.7,9.9,16.7v38.1c0,6.2-3.1,12.1-8.2,15.6l-41.2,28.4,5.6,47.1,27.1,3.4c6.9.9,12.8,5.4,15.3,11.9,2.5,6.5,1.3,13.8-3.1,19.2l-34.9,41.6-26.2,58.5,9.4,50c1.3,7.2-1.5,14.5-7.4,18.8l-59.8,43.9c-4.6,3.4-10.5,4.5-16.1,3l-52.2-13.8-29.7-3-57.6,16.7c-1.7.5-3.5.8-5.3.8ZM343.2,2186.8c.6,0,1.3,0,1.9,0l34.9,3.5c1,0,2,.3,3,.5l44.9,11.9,42.8-31.4-8.3-44.1c-.7-3.8-.2-7.7,1.3-11.3l29.7-66.3c.7-1.6,1.7-3.1,2.8-4.5l14.2-16.9-7.2-.9c-8.7-1.1-15.5-7.9-16.5-16.6l-8.7-73.3c-.8-7,2.3-13.9,8.1-17.9l42.4-29.2v-16.9l-32-17.6c-2.7-1.5-5-3.6-6.7-6.1l-34.9-52.4c-3.6-5.4-4.2-12.1-1.6-18.1,2.5-5.9,7.9-10.1,14.2-11.2l49.7-8.5,12.1-37.7,16.3-55.3-13.5-109.5c-.9-7.1,2.3-14.1,8.2-18.1l49.6-33.6,17.6-39-15.7-5.4c-5.3-1.8-9.5-5.9-11.5-11.2l-9.3-24.4h-57.9l-13.5,17.2c-4.1,5.2-10.5,7.9-17,7.2l-80.3-8.7c-10-1.1-17.4-9.8-16.9-19.8l1.1-22.8-13.2-4.9-42.7,36.1,19.3,122.1c.3,1.8.3,3.6,0,5.3l-14,111.7c-.2,1.6-.6,3.2-1.2,4.7l-64,160.8-17,78.4h23.2c6,0,11.7,2.8,15.2,7.7,3.6,4.8,4.7,11,3,16.8l-6.8,22.6,26.3-4.8c5.9-1.1,12.1.7,16.5,4.8,4.4,4.1,6.6,10.1,5.8,16.1l-7.9,65.3-1.7,114.2c0,2.2-.5,4.4-1.3,6.5l-12.5,32.6,24.4-7.1c1.7-.5,3.5-.7,5.3-.7Z"/>
  <path class="st1" d="M2046.6,1486.4c-4.8,0-9.4-1.8-13-5.1l-79.5-74.1c-3-2.8-5.1-6.6-5.8-10.7l-12.2-70.3-13-75.2c-.9-5.1.4-10.4,3.5-14.6l37.5-50.1c1.3-1.7,2.8-3.2,4.6-4.4l36.7-24.8,6.7-59.9c1.1-9.6,9.2-16.9,18.9-16.9h59.2c10.5,0,19,8.5,19,19v78.3l14.2,78c.5,3,.4,6.1-.5,9l-21.4,69.8-.4,67.9c0,3.1-.8,6.2-2.3,8.9l-35.5,65.4c-2.8,5.2-7.8,8.7-13.6,9.7-1,.2-2,.2-3.1.2ZM1984.8,1383.7l56.9,53,21.5-39.6.4-65.9c0-1.8.3-3.7.8-5.4l20.8-68.1-13.7-75.1c-.2-1.1-.3-2.3-.3-3.4v-61h-23.2l-5.8,51.7c-.6,5.5-3.6,10.5-8.2,13.6l-41.3,27.9-30.6,41,11.7,67.2,11.1,64Z"/>
  <circle class="st0" cx="1546.1" cy="1301.4" r="28.5"/>
  <circle class="st0" cx="1517.6" cy="1369.3" r="28.5"/>
  <circle class="st0" cx="1429.2" cy="1381.6" r="28.5"/>
  <circle class="st0" cx="1342.5" cy="1410.1" r="28.5"/>
  <circle class="st0" cx="1400.6" cy="1463.1" r="28.5"/>
  <circle class="st0" cx="1353.2" cy="1520.2" r="28.5"/>
  <circle class="st0" cx="1285.4" cy="1532.8" r="28.5"/>
  <circle class="st0" cx="1285.4" cy="1609.4" r="28.5"/>
  <circle class="st0" cx="1324.7" cy="1715.4" r="28.5"/>
  <circle class="st0" cx="1275.9" cy="1772.5" r="28.5"/>
  <circle class="st0" cx="1247.4" cy="1841.4" r="28.5"/>
  <circle class="st0" cx="1174.6" cy="1852.3" r="28.5"/>
  <circle class="st0" cx="1164.3" cy="1922.1" r="28.5"/>
  <circle class="st0" cx="1093.7" cy="1909.4" r="28.5"/>
  <circle class="st0" cx="1009.6" cy="1893.6" r="28.5"/>
  <circle class="st0" cx="973.4" cy="1836.5" r="28.5"/>
  <circle class="st0" cx="916.3" cy="1893.6" r="28.5"/>
  <circle class="st0" cx="966.8" cy="1944.2" r="28.5"/>
  <circle class="st0" cx="887.8" cy="1958.8" r="28.5"/>
  <circle class="st0" cx="830.7" cy="1995.9" r="28.5"/>
  <circle class="st0" cx="802.1" cy="1930.2" r="28.5"/>
  <circle class="st0" cx="780.7" cy="1865" r="28.5"/>
  <circle class="st0" cx="711.4" cy="1872.9" r="28.5"/>
  <circle class="st0" cx="448.7" cy="2053" r="28.5"/>
  <circle class="st0" cx="424.9" cy="2116.7" r="28.5"/>
  <circle class="st0" cx="367.8" cy="2152.6" r="28.5"/>
  <circle class="st0" cx="367.8" cy="2081.6" r="28.5"/>
  <circle class="st0" cx="373.4" cy="2010.6" r="28.5"/>
  <circle class="st0" cx="367.8" cy="1938" r="28.5"/>
  <circle class="st0" cx="314" cy="1890.7" r="28.5"/>
  <circle class="st0" cx="321.9" cy="1823.8" r="28.5"/>
  <circle class="st0" cx="350.5" cy="1756.9" r="28.5"/>
  <circle class="st0" cx="379" cy="1689.9" r="28.5"/>
  <circle class="st0" cx="391.6" cy="1609.4" r="28.5"/>
  <circle class="st0" cx="385.3" cy="1539.6" r="28.5"/>
  <circle class="st0" cx="373.4" cy="1470.7" r="28.5"/>
  <circle class="st0" cx="774.7" cy="1301.4" r="28.5"/>
  <circle class="st0" cx="859.7" cy="1234.5" r="28.5"/>
  <circle class="st0" cx="1108.5" cy="470.2" r="28.5"/>
  <circle class="st0" cx="1259" cy="551.3" r="28.5"/>
  <circle class="st0" cx="1286.6" cy="619.7" r="28.5"/>
  <circle class="st0" cx="1342.5" cy="818.8" r="28.5"/>
  <circle class="st0" cx="1330.8" cy="886.9" r="28.5"/>
  <circle class="st0" cx="1400.6" cy="995.8" r="28.5"/>
  <circle class="st0" cx="1474.8" cy="1052.9" r="28.5"/>
  <circle class="st0" cx="1603.2" cy="1099.2" r="28.5"/>
  <circle class="st0" cx="1660.3" cy="1004.2" r="28.5"/>
  <circle class="st0" cx="1717.4" cy="975.6" r="28.5"/>
  <circle class="st0" cx="1785.3" cy="975.6" r="28.5"/>
  <circle class="st0" cx="1851.1" cy="1004.2" r="28.5"/>
  <circle class="st0" cx="1921.6" cy="995.8" r="28.5"/>
  <circle class="st0" cx="2040.3" cy="1234.5" r="28.5"/>
  <circle class="st0" cx="1851.1" cy="775.5" r="28.5"/>
  <circle class="st0" cx="1822.6" cy="708.3" r="28.5"/>
  <circle class="st0" cx="1785.3" cy="498.8" r="28.5"/>
  <circle class="st0" cx="1590.2" cy="200.9" r="28.5"/>
  <circle class="st0" cx="1688.9" cy="648.3" r="28.5"/>
  <circle class="st0" cx="1631.8" cy="775.5" r="28.5"/>
  <circle class="st0" cx="1794" cy="326" r="28.5"/>
  <circle class="st0" cx="1970.5" cy="413.2" r="28.5"/>
</svg>