<?xml version="1.0" encoding="UTF-8"?>
<svg id="Calque_1" xmlns="http://www.w3.org/2000/svg" xmlns:xlink="http://www.w3.org/1999/xlink" version="1.1" viewBox="0 0 85.5 85.5">
  <!-- Generator: Adobe Illustrator 29.3.0, SVG Export Plug-In . SVG Version: 2.1.0 Build 146)  -->
  <defs>
    <style>
      .st0 {
        fill: #264f0b;
      }

      .st1 {
        fill: #fefdf8;
      }

      .st2 {
        clip-path: url(#clippath);
      }
    </style>
    <clipPath id="clippath">
      <rect class="st1" width="85.5" height="85.5" rx="15.7" ry="15.7"/>
    </clipPath>
  </defs>
  <rect class="st1" width="85.5" height="85.5" rx="15.7" ry="15.7"/>
  <g class="st2">
    <g id="J2zicK.tif">
      <path class="st0" d="M11.5,38c.6-4.6,6.5-9.5,10.2-11.8,6-3.7,14.4-7.1,21.6-5.5,10.5,2.3,7.7,12.8.8,17.5-4,2.8-13,5-17.1,1.6-.4-.4-2.2-2.5-1-2.7s1.3,1.1,1.7,1.3c6.1,3.4,20.1-3.4,19.1-11.2-.2-1.8-2.8-2.8-4.4-3.1-3.5-.5-7.6.3-10.8,1.6-5.9,2.2-20,10-13.7,17.8,2.1,2.6,5.7,4.4,8.1,6.9l5.9-3.2c2-3,8.4-6.5,7.5,0,1.4-.6,2.2,0,2,1.5s-1.1,3.5-1.4,5.1c-.1.7-.3,1.5-.1,2.2,1.3-2.1,2.3-4.4,3.3-6.6.8-1.8,1.8-3.8,2.5-5.7s.4-1.8.7-2.1c.5-.4,4-.8,3.7.6-.9,2.1-1.1,4.8.3,6.7,1.1-2.1,2.7-4.4,3.5-6.6.6-1.7,0-2.6,2.2-2.8,3.6-.3,1.9,1.1,1.6,2.9s.1,3.8,1.3,5.5c3.7-1.5,8.6-1.8,11.9.9,2.1,1.8,3.3,5.5,1,7.6-.3.3-1.6,1.2-2.1.9s.9-1.2,1.2-1.5c.8-.9.9-2,.5-3.1-1.4-4.1-8.3-4.5-11.8-3.1.5,1.6.8,2.6,0,4.1-1.4,2.5-7.9,5.7-6.7.5s2-3.6,3.4-4.6c-.2-.9-.7-1.7-1-2.6s-.3-1.2-.4-1.9,0-.4-.3-.2c-.5,1.2-1.1,2.3-1.8,3.3s-1.6,2.2-1.6,2.5.6,1.8.6,2.3c.3,2.7-1.4,4.5-3.8,5.4s-4.4,1.2-4.3-.8,2.6-3.4,3.3-4.3,1.1-1.4,1.1-1.6c-.7-1.6-1.4-3.2-1.8-4.9-1.2,2.6-2.3,5.2-3.6,7.8-.7,1.3-2.5,5.2-4.2,5.3s-1.8-1.2-1.8-2.1v-2.2l-1.2,2.6c-1.3,3.2-4,3.5-5.4,0-1.1-2.6-.7-5.2,0-7.8-.1-.1-3.1,1.6-3.1,1.8s.5,1.2.5,1.6c1.1,5.4-2.5,11.8-8.2,12.4h-2.9c-1.3-.3-2.3-1-2.7-2.2-2.2-5.8,5.1-9.9,9.3-12l.2-.3c-4.3-3.4-10-6-11.8-11.6,0-.7,0-1.5,0-2.2ZM37.5,46.1c-1.8.1-3,2.1-3.6,3.6-.8,1.8-1.3,3.7-1.1,5.7s.3,2.1,1.1,1.3,1.7-3.5,2.1-4.5,2.1-5.6,1.6-6.1ZM54.9,55c1.8-.5,2.8-2.3,2.3-4-1.2.9-2.2,2.5-2.3,4ZM25,53.2c-2.7,1.5-8.4,4.9-7.6,8.7s3.8.3,4.8-.5c2.4-2,3.7-5.1,2.8-8.2Z"/>
    </g>
  </g>
</svg>