<?xml version="1.0" encoding="UTF-8"?>
<svg id="Calque_1" xmlns="http://www.w3.org/2000/svg" xmlns:xlink="http://www.w3.org/1999/xlink" version="1.1" viewBox="0 0 85.5 85.5">
  <!-- Generator: Adobe Illustrator 29.3.0, SVG Export Plug-In . SVG Version: 2.1.0 Build 146)  -->
  <defs>
    <style>
      .st0 {
        fill: #264f0b;
      }

      .st1 {
        fill: #fefdf8;
      }

      .st2 {
        clip-path: url(#clippath);
      }
    </style>
    <clipPath id="clippath">
      <rect class="st1" width="85.5" height="85.5" rx="15.7" ry="15.7"/>
    </clipPath>
  </defs>
  <rect class="st1" width="85.5" height="85.5" rx="15.7" ry="15.7"/>
  <g class="st2">
    <g id="Yy4rdl.tif">
      <g>
        <path class="st0" d="M5.6,34.9l.4-.5,7-4c.5-.3.8-.1,1.3.1,2.3,1.2,4.6,2.8,6.9,4,.2.1.3.5.3.7,0,3.7,0,7.5,0,11.2,0,.2-.4.3-.6.2l-4.5-2.6c-.1-.2-.2-.4-.2-.6v-5.4c0-.1-.1-.2-.2-.3-.2-.2-1.7-1.1-2-1.2-.4-.2-.5-.1-.9,0s-1.9,1-2,1.2-.2.4-.2.6c-.1,1.6.2,3.6,0,5.2s-.4.6-.8.8c-1.3.8-2.7,1.4-3.9,2.3-.3,0-.5,0-.6-.3v-11.4Z"/>
        <path class="st0" d="M42.6,65.5h-.7c-.8-.5-1.6-.9-2.4-1.4s-.4-.3-.3-.4c.3,0,1-.5,1.2-.5.3,0,1.4.9,1.8,1h.2s6.6-3.8,6.6-3.8h.1c0-.1,0-.4,0-.4v-7.5s-.2-.2-.2-.2l-6.7-3.8h-.2s-6.7,3.9-6.7,3.9v7.9c0,.1.2.2.3.3.4.3,1.6,1,2,1.1s.9-.1,1.1-.6v-7.9s.1-.2.2-.2h1.1s0,0,0,0v8.2c0,0-.1.5-.2.6-.5,1.1-1.6,1.3-2.7,1s-2.1-1-2.6-1.4-.5-.5-.5-.9c-.2-2.6.2-5.5,0-8.1,0-.8.8-1.1,1.4-1.5,2.1-1.3,4.3-2.5,6.5-3.6.3,0,.7,0,.9.1,2.1,1.3,4.4,2.4,6.5,3.7s.8.5.9,1c0,2.5.3,5.4,0,7.9s-.3,1.1-1,1.6l-6.8,3.9Z"/>
        <path class="st0" d="M55.4,20c.3,0,.5,0,.7.2,1.3.6,2.5,1.5,3.9,2.1.2.2.4.3.5.6v20.8c0,.3-.3.5-.5.6-2.3,1.2-4.5,2.8-6.8,3.9s-.7.4-1.3,0c-2.3-1.1-4.6-2.8-6.9-4-.2-.2-.5-.4-.5-.8v-8.4c0-.4.3-.5.6-.7,2.2-1.5,4.8-2.6,7.1-4.1h.6s2,1.1,2,1.1c.2,0,.4-.2.4-.4v-10.8c0-.2,0-.3.3-.4ZM52.3,36.5l-2.6,1.5v3c.9.5,1.7,1.1,2.7,1.5.9-.5,1.7-.9,2.5-1.5v-3s-2.4-1.5-2.4-1.5c0,0-.1,0-.2,0Z"/>
        <path class="st0" d="M32.7,30.4h.5c2.3,1.3,4.6,2.5,6.9,3.9.4.2.8.4.9.9-.2,2.7.2,5.7,0,8.4,0,.4-.2.5-.5.7-2.3,1.1-4.6,2.9-6.9,4s-.7.2-1.2,0c-2.3-1.2-4.5-2.8-6.8-3.9-.4-.2-.5-.6-.5-1,.2-2.5-.2-5.3,0-7.8,0-.9.6-1,1.3-1.4,2.1-1.3,4.3-2.4,6.5-3.7Z"/>
        <path class="st0" d="M74.4,37.9l-2.3-1.3c-.3-.1-.4,0-.7.1-.4.2-1.7.9-2,1.2s-.2.2-.2.4c0,.4,0,2.1,0,2.5s.2.3.3.3l7.1,4.1c.4.3.3.6,0,.8-1.2.9-3,1.5-4.3,2.4h-.6s-7.4-4.1-7.4-4.1l-.3-.4c-.1-2.9,0-5.8,0-8.7,0-.5.4-.6.8-.8,2.2-1.4,4.6-2.5,6.8-3.9.2,0,.4-.1.6,0l7.1,4.1c.2.1.5.3.6.6s0,1.9,0,2.3-.2.6-.6.8c-1.3.9-2.8,1.5-4.1,2.4-.3.2-.6,0-.6-.4,0-.5.1-2.1,0-2.3Z"/>
        <path class="st0" d="M46.3,55.3c-.1,0-.3-.7-.5-.9-.5-.6-2.5-.6-3.1-.2s-.5.9,0,1.1c1.4.8,4.9,0,5.1,2.3.2,2.7-3.7,2.9-5.5,2.2s-1.6-1.2-1.5-2.1,1-.3,1.2-.2.2.8.5,1.1c.6.5,2.5.5,3.2.2s1-1.2.1-1.6c-1.3-.5-4.5,0-4.7-2-.3-2.5,2.5-2.9,4.4-2.5s1.7.8,1.9,1.8.1.6,0,.6-.9,0-1.1,0Z"/>
        <path class="st0" d="M73.4,38.5c.1.1.1,1.6,0,1.8s-1.4.9-1.5.9l-1.5-.8c0,0,0-1.8,0-1.9l1.5-.8c0,0,1.4.8,1.5.8Z"/>
        <path class="st0" d="M52.4,50.8c2.2-.4,2.1,2.9,0,2.6-1.4-.2-1.4-2.3,0-2.6ZM52.4,51c-.8.2-1,1.5-.3,1.9s2.1-.6,1.4-1.6-.7-.5-1.2-.4Z"/>
        <path class="st0" d="M52.2,51.3c.4,0,1.1-.1,1,.4s-.1.2-.1.3.2.5.2.7c-.5.2-.3-.4-.4-.5s-.3,0-.4,0v.6s-.3,0-.3,0v-1.5Z"/>
      </g>
    </g>
  </g>
</svg>