<?xml version="1.0" encoding="UTF-8"?>
<svg id="Calque_1" xmlns="http://www.w3.org/2000/svg" xmlns:xlink="http://www.w3.org/1999/xlink" version="1.1" viewBox="0 0 85.5 85.5">
  <!-- Generator: Adobe Illustrator 29.3.0, SVG Export Plug-In . SVG Version: 2.1.0 Build 146)  -->
  <defs>
    <style>
      .st0 {
        fill: #264f0b;
      }

      .st1 {
        fill: #fefdf8;
      }

      .st2 {
        clip-path: url(#clippath);
      }
    </style>
    <clipPath id="clippath">
      <rect class="st1" width="85.5" height="85.5" rx="15.7" ry="15.7"/>
    </clipPath>
  </defs>
  <rect class="st1" width="85.5" height="85.5" rx="15.7" ry="15.7"/>
  <g class="st2">
    <g id="m3fKXb.tif">
      <g>
        <path class="st0" d="M65,23.6c0,.4,0,.7,0,1.1-.3,3.8-.7,7.6-1,11.4-.8,8.6-1.5,17.2-2.3,25.9-.2,2.2-.4,4.4-.6,6.5s0,.5-.2.6c-.7.4-2.5.9-3.4,1.1-4.9,1.4-9.9,2.8-14.9,4-6-1.6-12-3.3-18.1-5h0s-3.4-38.2-3.4-38.2c-.1-2.2-.5-4.4-.6-6.6,0-.3,0-.5,0-.8h44.5ZM30.4,49.9h19.1l-.8,7.1c-.7.3-1.5.5-2.3.7s-1.4.4-2.2.6-1.1.3-1.5.4-1.2-.2-1.7-.3c-1.6-.4-3.1-.9-4.6-1.3l-.4-4.4h-5.6c0,.5,0,.9,0,1.4.1,2.2.3,4.6.7,6.7,0,.1,0,.6.1.7s0,0,0,0c.3.1.9.3,1.3.4,3.3,1,6.7,1.9,10,2.8,3.9-1,7.7-2,11.5-3.3,0,0,0-.5.1-.6.1-1,.2-2,.3-3,.4-4.5.8-8.9,1.2-13.4-.1,0-.3,0-.4,0-.4,0-1,0-1.4,0-5.8-.1-11.4,0-17.2,0h-.1s.8-8.7.8-8.7c1.7,0,3.5-.1,5.2-.2,2,.2,4,0,6,.3s.6,0,.7.1.1.3.1.4c0,.4.1.9.2,1.3.1,1.3.3,2.6.3,3.8,0,0,0,0,0,0,0,0,.5.1.6.1h5.2l-1.1-12.1h-17.6c-1.4,0-2.8,0-4.2,0s-.5,0-.7,0,0,.2,0,.3c-.2,1.6-.3,3.2-.5,4.9-.5,5-.9,10.1-1.3,15.1,0,0,0,0,0,.1Z"/>
        <path class="st0" d="M50.7,11.2v2.3h-3.6c0,.1,3.8,4.2,3.8,4.2v2h-8v-2.3c1,0,2.1,0,3.2,0s.6,0,.6,0c-1.2-1.4-2.5-2.8-3.7-4.1v-2h7.8Z"/>
        <polygon class="st0" points="41.5 11.2 41.5 19.7 34.6 19.7 34.6 16.8 38.7 16.8 38.7 11.2 41.5 11.2"/>
      </g>
    </g>
  </g>
</svg>