<?xml version="1.0" encoding="UTF-8"?>
<svg id="Calque_1" xmlns="http://www.w3.org/2000/svg" xmlns:xlink="http://www.w3.org/1999/xlink" version="1.1" viewBox="0 0 85.5 85.5">
  <!-- Generator: Adobe Illustrator 29.3.0, SVG Export Plug-In . SVG Version: 2.1.0 Build 146)  -->
  <defs>
    <style>
      .st0 {
        fill: #264f0b;
      }

      .st1 {
        fill: #fefdf8;
      }

      .st2 {
        clip-path: url(#clippath);
      }
    </style>
    <clipPath id="clippath">
      <rect class="st1" width="85.5" height="85.5" rx="15.7" ry="15.7"/>
    </clipPath>
  </defs>
  <rect class="st1" width="85.5" height="85.5" rx="15.7" ry="15.7"/>
  <g class="st2">
    <g id="_x33_ZnMpl.tif">
      <g>
        <path class="st0" d="M64.9,23.7v.2l-4,45.2-18.1,5h-.2l-18-5-4.1-45.3h44.4ZM30.3,49.8h19.2l-.6,7.2-6.1,1.7h-.1l-6.2-1.6-.4-4.4h-5.6c.2,2.7.5,5.4.7,8,0,.1,0,.6,0,.6l11.4,3.2,11.3-3.1,1.6-17.1h-20.2l-.5-5.7h21.2s.5-5.5.5-5.5h-27.8s1.5,16.8,1.5,16.8Z"/>
        <polygon class="st0" points="52.7 11.4 52.7 19.8 49.9 19.8 49.9 15.7 47.9 18.7 45.9 15.7 45.9 19.8 43.2 19.8 43.2 11.4 46.1 11.4 47.9 14.3 49.7 11.4 52.7 11.4"/>
        <polygon class="st0" points="27.5 11.4 27.5 14.2 30.1 14.2 30.1 11.4 32.9 11.4 32.9 19.8 30.1 19.8 30.1 17 27.5 17 27.5 19.8 24.7 19.8 24.7 11.4 27.5 11.4"/>
        <polygon class="st0" points="41.9 11.4 41.9 14.2 39.4 14.2 39.4 19.8 36.6 19.8 36.6 14.2 34.1 14.2 34.1 11.4 41.9 11.4"/>
        <polygon class="st0" points="56.9 11.4 56.9 17 60.9 17 60.9 17.1 60.9 19.8 54 19.8 54 11.4 56.9 11.4"/>
      </g>
    </g>
  </g>
</svg>