<?xml version="1.0" encoding="UTF-8"?>
<svg id="Calque_1" xmlns="http://www.w3.org/2000/svg" xmlns:xlink="http://www.w3.org/1999/xlink" version="1.1" viewBox="0 0 85.5 85.5">
  <!-- Generator: Adobe Illustrator 29.3.0, SVG Export Plug-In . SVG Version: 2.1.0 Build 146)  -->
  <defs>
    <style>
      .st0 {
        fill: #264f0b;
      }

      .st1 {
        fill: #fefdf8;
      }

      .st2 {
        clip-path: url(#clippath);
      }
    </style>
    <clipPath id="clippath">
      <rect class="st1" width="85.5" height="85.5" rx="15.7" ry="15.7"/>
    </clipPath>
  </defs>
  <rect class="st1" width="85.5" height="85.5" rx="15.7" ry="15.7"/>
  <g class="st2">
    <g id="KpCypn.tif">
      <g>
        <path class="st0" d="M70.4,60.5l-8.5,1.8c.9,1.7,3,2.4,4.5,3.5,1.7,1.2,4.2,3.5,5.3,5.2s.4.9.7,1.4c-.2,0-.4,0-.5-.2-1-.7-2-1.7-3.1-2.4-3.4-2.2-7.2-2.9-9.6-6.6-.2-.3-.9-1.5-.8-1.8.2-.6,2.4-1.2,3.1-1.4,2-.5,4.1-.6,6.1-.7-.3-.5-.7-.8-1.2-1.2-1.7-1.3-4.6-3.3-6.5-4.1-1.6-.7-4.7-1.2-5.8-2.5-.7-.8-1.3-2.2-1.8-3.2-2.5-5.1-4.3-10.8-7.7-15.4-3.2-4.4-10.2-10.6-15.7-11.5s-3,0-4.2-.4c-.4-.1-2.8-2-3.7-2.5s-5.1-2.5-5.1-.2,3.2,4.9,4.1,6.5c1.7,3,2,7.1,4.1,9.9.4.6,1.1,1.1,1.5,1.7.8,1.4-.4,3.2-.8,4.6-.9,3.2-1,7,.1,10.2s1.1,3.1,2.5,3.1c.3-2.3.3-4.9,1.6-6.9l1.5-1.8c.4.1.6,1.4.8,1.8,1.2,2.8,2.7,5.7,4.3,8.3s2.8,4.1,4.8,5.5c0,.3-.3.1-.4,0-.7-.3-3.5-2.9-4.2-3.5-2.3-2.1-4-4.3-5.1-7.3-.2,0-.2.4-.2.5-.3,1.6-.3,4.7-1.9,5.4-2.3,1.1-4.2-1.7-5-3.6-2.2-4.8-1.3-10.4.4-15.2-1-1.2-1.8-2.3-2.5-3.7-1.6-3.3-1.9-6.6-4.1-9.6s-4.3-4.5-3-7.4,7.5-.9,9.9.7c.6.4,1.1,1.1,1.7,1.3s2.3,0,3.3.3c6.8,1.1,14.7,8.4,18.5,13.8,2.7,3.9,4,8.2,6.1,12.4s1.8,3.9,2.4,4.5,3.9,1.7,4.9,2.3c2.1,1.1,8.3,5.7,9.3,7.7s.1.3,0,.5Z"/>
        <path class="st0" d="M25.6,25c1.2-.3,2-.2,2.8.8s.6,1.4.1,2.2c-.8,1.5-1.1-.3-1.5-1.1-.4-.7-1.1-1.2-1.4-1.9Z"/>
      </g>
    </g>
  </g>
</svg>