<?xml version="1.0" encoding="UTF-8"?>
<svg id="Calque_1" xmlns="http://www.w3.org/2000/svg" xmlns:xlink="http://www.w3.org/1999/xlink" version="1.1" viewBox="0 0 85.5 85.5">
  <!-- Generator: Adobe Illustrator 29.3.0, SVG Export Plug-In . SVG Version: 2.1.0 Build 146)  -->
  <defs>
    <style>
      .st0 {
        fill: #264f0b;
      }

      .st1 {
        fill: #fefdf8;
      }

      .st2 {
        clip-path: url(#clippath);
      }
    </style>
    <clipPath id="clippath">
      <rect class="st1" width="85.5" height="85.5" rx="15.7" ry="15.7"/>
    </clipPath>
  </defs>
  <rect class="st1" width="85.5" height="85.5" rx="15.7" ry="15.7"/>
  <g class="st2">
    <g id="atToJv.tif">
      <g>
        <path class="st0" d="M8.4,59.3l5.2-26.2h12.3c4.2.3,7.3,2.4,7.5,6.9.3,6.7-4.6,12.6-11.5,12.6-.1,0-.2,0-.3,0-1.9,0-3.8,0-5.7,0l-1.3,6.8h-6.1ZM17.2,47.6c1.2,0,2.5,0,3.8,0,4-.2,5.7-2.7,5.9-6.5.1-2.5-1.8-3.1-3.9-3.2-1.4,0-2.8,0-4.2,0l-1.6,9.7Z"/>
        <path class="st0" d="M58,59.3h-6.2l5.2-26.2h12.3c4,.3,7.2,2.4,7.5,6.7.3,5.2-2.3,10-7.1,12-1.7.7-2.9.8-4.6.8s-3.8,0-5.7,0l-1.3,6.8ZM60.6,47.6c1.2,0,2.5,0,3.8,0,3.8-.2,5.5-2.3,5.9-6s-1.3-3.7-3.9-3.8c-1.4,0-2.8,0-4.1,0l-1.6,9.7Z"/>
        <path class="st0" d="M43.5,26.2l-1.3,6.8h6.1c3.3.3,6.7,1.8,6.2,5.7l-2.4,13.8h-6.5l2.4-12.4c.1-.9.2-1.7-.8-2s-.9-.2-1.3-.2c-1.6,0-3.2,0-4.8,0l-2.9,14.6h-6.2l5.2-26.2h6.1Z"/>
      </g>
    </g>
  </g>
</svg>