<?xml version="1.0" encoding="UTF-8"?>
<svg id="Calque_1" xmlns="http://www.w3.org/2000/svg" xmlns:xlink="http://www.w3.org/1999/xlink" version="1.1" viewBox="0 0 85.5 85.5">
  <!-- Generator: Adobe Illustrator 29.3.0, SVG Export Plug-In . SVG Version: 2.1.0 Build 146)  -->
  <defs>
    <style>
      .st0 {
        fill: #264f0b;
      }

      .st1 {
        fill: #fefdf8;
      }

      .st2 {
        clip-path: url(#clippath);
      }
    </style>
    <clipPath id="clippath">
      <rect class="st1" width="85.5" height="85.5" rx="15.7" ry="15.7"/>
    </clipPath>
  </defs>
  <rect class="st1" width="85.5" height="85.5" rx="15.7" ry="15.7"/>
  <g class="st2">
    <g id="xAcIV7.tif">
      <g>
        <path class="st0" d="M64.9,23.7c0,.3,0,.7,0,1s-.1.1-.1.3c-.8,13.4-2.3,27.2-3.5,40.6-.1,1.1-.2,2.3-.4,3.4l-18.2,5-18-4.9-4-44.7v-.6c0,0,44.3,0,44.3,0ZM56.5,33h-27.6l.5,5.5h21.2l-.5,5.7h-20.3l.5,5.5h19.2l-.6,7.2-6.1,1.7-6.3-1.6-.4-4.2c0,0-.1-.3-.2-.3h-5.3l.7,8.4.2.3,11.2,3.1,11.3-3.1,2.5-28.3Z"/>
        <path class="st0" d="M45.9,11.4c0,.3.1,2.5-.2,2.5h-3.8v.3h3.8s.2.2.2.2v5.6h-6.9v-2.6h3.9s0-.5,0-.5h-3.9v-5.5h6.9Z"/>
        <path class="st0" d="M53.9,11.4v2.5h-3.9v.3h3.9v5.7h-6.8v-2.6h3.9s0-.5,0-.5h-3.9v-5.5h6.8Z"/>
        <polygon class="st0" points="37.7 11.4 37.7 14.3 33.8 14.3 33.8 17.1 37.7 17.1 37.7 19.9 31 19.9 31 11.4 37.7 11.4"/>
      </g>
    </g>
  </g>
</svg>