<?xml version="1.0" encoding="UTF-8"?>
<svg id="Calque_1" xmlns="http://www.w3.org/2000/svg" xmlns:xlink="http://www.w3.org/1999/xlink" version="1.1" viewBox="0 0 85.5 85.5">
  <!-- Generator: Adobe Illustrator 29.3.0, SVG Export Plug-In . SVG Version: 2.1.0 Build 146)  -->
  <defs>
    <style>
      .st0 {
        fill: #264f0b;
      }

      .st1 {
        fill: #fefdf8;
      }

      .st2 {
        clip-path: url(#clippath);
      }
    </style>
    <clipPath id="clippath">
      <rect class="st1" width="85.5" height="85.5" rx="15.7" ry="15.7"/>
    </clipPath>
  </defs>
  <rect class="st1" width="85.5" height="85.5" rx="15.7" ry="15.7"/>
  <g class="st2">
    <g id="h6lICz.tif">
      <g>
        <path class="st0" d="M22.1,29.9c2.8.5,4.5,2,5.2,4.7.2.7.9,3.6-.2,3.6h-4.9c-.6-.7,0-2.4-1.2-2.9-2.8-1.3-4.9,5.3-5.1,7.1s-.2,3.9.3,4.9c1.3,2.4,4.7-.3,4.8-2.3-.5,0-1.8.1-1.9-.5s.9-4.2,1.3-4.2h8.2c.1,0,.5.4.5.7s-.8,3.5-1,3.7c-.5.5-1.2.2-1.5.3s-1,2.8-1.3,3.3c-1.9,3.8-5.1,5.4-9.4,5-3.3-.3-5-3.2-5.7-6.2,0-1.4-.1-2.9,0-4.3.5-5.3,3.9-12.3,9.9-13h1.9Z"/>
        <path class="st0" d="M38.4,29.9c2.2.6,3.9,1.9,4.5,4.2s.7,2.9-.3,3.1-3.7.1-4.3,0c-1.4-.3,0-2.9-2.6-2.3-1.9.4-.5,2.9.2,3.8,2.6,3.3,5,4,4.4,9.1-.8,7.3-12.9,7.9-13.7.6,0-.4-.1-1.7,0-2s5.2-.3,5.4,0,0,1,.1,1.4c.4,1.5,2.6,1,2.5-.8-.1-2.6-5.2-5.2-5.6-8.8s1.5-7,5.6-8.2h3.7Z"/>
        <path class="st0" d="M56.9,30.3v22.5s-.3.3-.3.3h-5.2c-.8,0,.2-3-.4-3h-4.7c-.6.4-1,2.6-1.4,2.8s-4.8.2-5.3,0-.4-.3-.4-.4l10.4-22.3h7.4ZM48.3,45.3c.7-.1,3,.3,3.2-.3l.2-8.2-3.4,8.5Z"/>
        <path class="st0" d="M61.2,48.5c.2.6,2.3,1.1,2.4,1.4.1.4-.6,3.3-1,3.3h-4.7c0,0-.5-.4-.4-.7l5.3-22.1c6.7-.6,12.6,0,12,8.1-.3,4.5-4.5,9.9-9.3,9.9h-4.2ZM67.9,35.2c-1-.2-2.7.2-3.8,0l2.4,1.4-1.2,6.7c3.3.4,5.2-7.6,2.6-8.1Z"/>
      </g>
    </g>
  </g>
</svg>