<?xml version="1.0" encoding="UTF-8"?>
<svg id="Calque_1" xmlns="http://www.w3.org/2000/svg" xmlns:xlink="http://www.w3.org/1999/xlink" version="1.1" viewBox="0 0 85.5 85.5">
  <!-- Generator: Adobe Illustrator 29.3.0, SVG Export Plug-In . SVG Version: 2.1.0 Build 146)  -->
  <defs>
    <style>
      .st0 {
        fill: #fefdf8;
      }

      .st1 {
        fill: #264f0b;
        fill-rule: evenodd;
      }

      .st2 {
        clip-path: url(#clippath);
      }
    </style>
    <clipPath id="clippath">
      <rect class="st0" width="85.5" height="85.5" rx="15.7" ry="15.7"/>
    </clipPath>
  </defs>
  <rect class="st0" width="85.5" height="85.5" rx="15.7" ry="15.7"/>
  <g class="st2">
    <path class="st1" d="M42.7,26.6c-7.1,0-11.6,3.6-13.4,10.7,2.7-3.6,5.8-4.9,9.4-4,2,.5,3.5,2,5.1,3.6,2.6,2.7,5.7,5.8,12.3,5.8s11.6-3.6,13.4-10.7c-2.7,3.6-5.8,4.9-9.4,4-2-.5-3.5-2-5.1-3.6-2.6-2.7-5.7-5.8-12.3-5.8ZM29.3,42.7c-7.1,0-11.6,3.6-13.4,10.7,2.7-3.6,5.8-4.9,9.4-4,2,.5,3.5,2,5.1,3.6,2.6,2.7,5.7,5.8,12.3,5.8s11.6-3.6,13.4-10.7c-2.7,3.6-5.8,4.9-9.4,4-2-.5-3.5-2-5.1-3.6-2.6-2.7-5.7-5.8-12.3-5.8Z"/>
  </g>
</svg>