<?xml version="1.0" encoding="UTF-8"?>
<svg id="Calque_1" xmlns="http://www.w3.org/2000/svg" xmlns:xlink="http://www.w3.org/1999/xlink" version="1.1" viewBox="0 0 85.5 85.5">
  <!-- Generator: Adobe Illustrator 29.3.0, SVG Export Plug-In . SVG Version: 2.1.0 Build 146)  -->
  <defs>
    <style>
      .st0 {
        fill: #264f0b;
      }

      .st1 {
        fill: #fefdf8;
      }

      .st2 {
        clip-path: url(#clippath);
      }
    </style>
    <clipPath id="clippath">
      <rect class="st1" width="85.5" height="85.5" rx="15.7" ry="15.7"/>
    </clipPath>
  </defs>
  <rect class="st1" width="85.5" height="85.5" rx="15.7" ry="15.7"/>
  <g class="st2">
    <g id="_x37_6zXH7.tif">
      <g>
        <path class="st0" d="M62.7,71.4c-2.1-.2-4.2-1.5-5.4-3.2s-1.2-2.2-1.3-3.4c-4.5,1.9-9.3-.2-12.5-3.4l5.3-5.5s0,0,.1,0c0,0,.4.3.5.4,1.9,1.3,4,1.7,5.8.1,4.6-4-.4-8.1-3.2-11-1.8-1.8-3.6-3.7-5.4-5.5-1.1-1.1-2.2-2.1-3.2-3.2l5.3-5.4,13.9,13.8c2.6,3.1,3.8,7.5,2,11.3,5.6.8,8.4,7.4,4.9,12s-3.2,2.8-5.2,3c-.4,0-1.2,0-1.6,0Z"/>
        <path class="st0" d="M21.8,13.9c.4,0,1,.1,1.5.2,3,.7,5.5,3.3,5.8,6.4,1.7-.7,3.5-.9,5.3-.6,2.8.5,5.3,2.2,7.3,4l-5.3,5.5s0,0-.1,0c0,0-.4-.4-.6-.5-1.9-1.3-4-1.6-5.9,0-3.8,3.3-.7,7,2,9.6l9.9,10-5.2,5.5-13.8-13.8c-2.4-2.8-3.7-6.6-2.5-10.2.1-.4.3-.8.4-1.2-5.4-.8-8.2-6.9-5.3-11.5,1.3-2.1,3.7-3.4,6.1-3.5.1,0,.3,0,.4,0Z"/>
        <path class="st0" d="M14,63c0,0,0-.1,0-.2.5-3.5,2.7-5.8,6.2-6.6s.3,0,.3,0c-.9-2.3-.9-4.8,0-7.1s2.1-3.9,3.5-5.5l5.6,5.3c-1.7,2-2.4,4.5-.4,6.6,3.6,4,7.3.2,10.1-2.6l9.5-9.4,5.5,5.2-13.9,13.9c-3.1,2.6-7.5,3.8-11.3,2-.4,2.7-2.3,5.1-4.8,6-4.3,1.6-9-1-10-5.4s0-.7-.2-1.1v-1.2Z"/>
        <path class="st0" d="M56.1,20.7c.6-4.5,5.2-7.4,9.6-6.2,7.4,2.2,7.1,13-.6,14.6-.1,0-.6,0-.6.1.3.7.5,1.5.6,2.3.5,3.9-1.5,7.5-4.1,10.2l-5.6-5.3s0,0,0,0c0-.2.4-.5.6-.8,1.2-1.8,1.5-3.9,0-5.7-3.9-4.5-8,.3-10.9,3.1-.9.9-1.8,1.8-2.7,2.6-2.1,2-4.1,4.1-6.1,6l-5.4-5.2h0c0,0,13.7-13.9,13.7-13.9,3.1-2.7,7.6-3.9,11.4-2.1Z"/>
      </g>
    </g>
  </g>
</svg>