<?xml version="1.0" encoding="UTF-8"?>
<svg id="Calque_1" xmlns="http://www.w3.org/2000/svg" version="1.1" viewBox="0 0 107.1 115.2">
  <!-- Generator: Adobe Illustrator 29.0.1, SVG Export Plug-In . SVG Version: 2.1.0 Build 192)  -->
  <defs>
    <style>
      .st0 {
        fill: #264f0b;
      }

      .st1 {
        fill: #fefdf8;
      }
    </style>
  </defs>
  <g>
    <path class="st1" d="M10,88.2l1.3-37.5c.5-14.8,8.6-28.4,21.5-35.5,6.2-3.3,13.2-5.2,20.7-5.2s14.6,1.9,20.7,5.2c13,7,21,20.7,21.5,35.5l1.3,37.5v5c0,6.6-5.4,12-12,12H22c-6.6,0-12-5.4-12-12v-5s0,0,0,0"/>
    <path class="st1" d="M85.1,115.2H22c-12.1,0-22-9.9-22-22v-5.3s1.3-37.5,1.3-37.5C1.9,31.9,12.2,15.1,28.1,6.4,35.8,2.2,44.7,0,53.6,0s17.7,2.2,25.5,6.4c15.9,8.6,26.1,25.4,26.8,43.9l1.3,37.8v5c0,12.1-9.9,22-22,22ZM20,88.3v4.8c0,1.1.9,2,2,2h63.1c1.1,0,2-.9,2-2v-4.8l-1.3-37.3c-.4-11.4-6.6-21.8-16.3-27-4.9-2.6-10.4-4-16-4s-11.1,1.4-16,4c-9.7,5.2-15.9,15.6-16.3,27l-1.3,37.3Z"/>
  </g>
  <g>
    <path class="st0" d="M10,93.1c0,6.6,5.4,12,12,12h63.1c6.6,0,12-5.4,12-12v-5H10v5Z"/>
    <rect class="st0" x="10" y="76.6" width="87.1" height="7.7"/>
    <path class="st0" d="M97.1,65.9s-1.3-6.2-5.1-6.2-4.2,1.7-5.1,3.3c-1-1.7-2.5-3.3-5.1-3.3s-4.2,1.7-5.1,3.3c-1-1.7-2.5-3.3-5.1-3.3s-4.2,1.7-5.1,3.3c-1-1.7-2.5-3.3-5.1-3.3s-4.2,1.7-5.1,3.3c-1-1.7-2.5-3.3-5.1-3.3s-4.2,1.7-5.1,3.3c-1-1.7-2.5-3.3-5.1-3.3s-4.2,1.7-5.1,3.3c-1-1.7-2.5-3.3-5.1-3.3s-4.2,1.7-5.1,3.3c-1-1.7-2.5-3.3-5.1-3.3s-4.2,1.7-5.1,3.3c-1-1.7-2.5-3.3-5.1-3.3v7.7s1.3,6.2,5.1,6.2,4.2-1.7,5.1-3.3c1,1.7,2.5,3.3,5.1,3.3s4.2-1.7,5.1-3.3c1,1.7,2.5,3.3,5.1,3.3s4.2-1.7,5.1-3.3c1,1.7,2.5,3.3,5.1,3.3s4.2-1.7,5.1-3.3c1,1.7,2.5,3.3,5.1,3.3s4.2-1.7,5.1-3.3c1,1.7,2.5,3.3,5.1,3.3s4.2-1.7,5.1-3.3c1,1.7,2.5,3.3,5.1,3.3s4.2-1.7,5.1-3.3c1,1.7,2.5,3.3,5.1,3.3s4.2-1.7,5.1-3.3c1,1.7,2.5,3.3,5.1,3.3v-7.7Z"/>
    <polygon class="st0" points="23.4 53.5 30.1 56.6 36.8 53.5 43.5 56.6 50.2 53.5 56.9 56.6 63.6 53.5 70.3 56.6 77 53.5 83.7 56.6 90.4 53.5 95.5 55.9 98.7 48.9 90.4 45.1 83.7 48.1 77 45.1 70.3 48.1 63.6 45.1 56.9 48.1 50.2 45.1 43.5 48.1 36.8 45.1 30.1 48.1 23.4 45.1 16.7 48.1 11.6 45.8 8.4 52.8 16.7 56.6 23.4 53.5"/>
    <path class="st0" d="M53.6,10c-20,0-36.9,13.5-42,31.9h84c-5.1-18.4-22-31.9-42-31.9Z"/>
  </g>
</svg>