<?xml version="1.0" encoding="UTF-8"?>
<svg id="Calque_1" xmlns="http://www.w3.org/2000/svg" version="1.1" viewBox="0 0 107.1 115.2">
  <!-- Generator: Adobe Illustrator 29.2.1, SVG Export Plug-In . SVG Version: 2.1.0 Build 116)  -->
  <defs>
    <style>
      .st0 {
        fill: #264f0b;
      }

      .st1 {
        fill: #fefdf8;
      }
    </style>
  </defs>
  <polygon class="st0" points="30.6 85 38.8 82 41.8 73.8 50 70.8 53 62.6 61.2 59.6 64.2 51.4 72.4 48.4 75.4 40.3 83.5 37.2 86.6 29.1 92.8 26.8 89.6 18.3 79.5 22 76.5 30.2 68.3 33.2 65.3 41.3 57.1 44.4 54.1 52.5 45.9 55.6 42.9 63.7 34.8 66.7 31.7 74.9 23.6 77.9 20.6 86.1 14.4 88.4 17.5 96.9 27.6 93.2 30.6 85"/>
  <polygon class="st0" points="26.1 34.7 29.2 42.8 37.3 45.8 40.3 54 48.5 57 51.5 65.2 59.7 68.2 62.7 76.4 70.9 79.4 73.9 87.6 82.1 90.6 84.4 96.8 92.9 93.6 89.1 83.5 81 80.5 78 72.3 69.8 69.3 66.8 61.1 58.6 58.1 55.6 50 47.4 46.9 44.4 38.8 36.2 35.8 33.2 27.6 25.1 24.6 22.8 18.4 14.2 21.5 18 31.6 26.1 34.7"/>
  <path class="st1" d="M89.6,18.3l3.2,8.5-6.2,2.3-3,8.2-8.2,3-3,8.2-8.2,3-2.8,7.7,5.4,2,3,8.2,8.2,3,3,8.2,8.2,3,3.7,10.1-8.5,3.2-2.3-6.2-8.2-3-3-8.2-8.2-3-3-8.2-7.7-2.8-2,5.4-8.2,3-3,8.2-8.2,3-3,8.2-10.1,3.7-3.2-8.5,6.2-2.3,3-8.2,8.2-3,3-8.2,8.2-3,2.9-7.7-5.4-2-3-8.2-8.2-3-3-8.2-8.2-3-3.7-10.1,8.5-3.2,2.3,6.2,8.2,3,3,8.2,8.2,3,3,8.2,7.7,2.8,2-5.4,8.2-3,3-8.2,8.2-3,3-8.2,10.1-3.7M89.6,8.2c-1.2,0-2.3.2-3.5.6l-10.1,3.7c-2.7,1-4.9,3.2-5.9,5.9l-1.4,3.9-3.9,1.4c-2.7,1-4.9,3.2-5.9,5.9l-1.4,3.9-3.8,1.4c-1.1-2.6-3.2-4.6-5.8-5.6l-3.9-1.4-1.4-3.8c-1-2.7-3.2-4.9-5.9-5.9l-3.9-1.4-.7-1.9c-1.5-4-5.3-6.5-9.4-6.5-1.2,0-2.3.2-3.5.6l-8.5,3.2c-2.5.9-4.5,2.8-5.6,5.2s-1.2,5.2-.3,7.6l3.7,10.1c1,2.7,3.2,4.9,5.9,5.9l3.8,1.4,1.4,3.8c1,2.7,3.2,4.9,5.9,5.9l3.8,1.4,1.4,3.8s0,0,0,0c-2.6,1.1-4.6,3.2-5.6,5.8l-1.4,3.9-3.9,1.4c-2.7,1-4.9,3.2-5.9,5.9l-1.4,3.9-1.9.7c-5.2,1.9-7.8,7.7-5.9,12.8l3.2,8.5c1.5,4,5.3,6.5,9.4,6.5s2.3-.2,3.5-.6l10.1-3.7c2.7-1,4.9-3.2,5.9-5.9l1.4-3.8,3.8-1.4c2.7-1,4.9-3.2,5.9-5.9l1.4-3.9,3.8-1.4c1.1,2.6,3.2,4.6,5.8,5.6l3.9,1.4,1.4,3.9c1,2.7,3.2,4.9,5.9,5.9l3.9,1.4.7,1.9c.9,2.5,2.8,4.5,5.2,5.6,1.3.6,2.7.9,4.2.9s2.3-.2,3.5-.6l8.5-3.2c5.2-1.9,7.8-7.7,5.9-12.8l-3.7-10.1c-1-2.7-3.2-4.9-5.9-5.9l-3.9-1.4-1.4-3.9c-1-2.7-3.2-4.9-5.9-5.9l-3.9-1.4-1.4-3.8c2.6-1.1,4.6-3.2,5.6-5.8l1.4-3.9,3.9-1.4c2.7-1,4.9-3.2,5.9-5.9l1.4-3.9,1.9-.7c2.5-.9,4.5-2.8,5.6-5.2,1.1-2.4,1.2-5.2.3-7.6l-3.2-8.5c-1.5-4-5.3-6.5-9.4-6.5h0Z"/>
</svg>