<?xml version="1.0" encoding="UTF-8"?>
<svg id="Calque_1" xmlns="http://www.w3.org/2000/svg" version="1.1" viewBox="0 0 126 126">
  <!-- Generator: Adobe Illustrator 29.2.1, SVG Export Plug-In . SVG Version: 2.1.0 Build 116)  -->
  <defs>
    <style>
      .st0 {
        fill: #264f0b;
      }

      .st1 {
        fill: #fefdf8;
      }
    </style>
  </defs>
  <rect class="st1" x="4.9" y="4.9" width="116.3" height="116.3" rx="28.6" ry="28.6"/>
  <g id="JsRNxJ.tif">
    <g>
      <path class="st0" d="M39.4,16.6c14.8-1.3,31.2.8,46.1,0,12.8.8,22.8,10.7,23.9,23.4-.8,15.1,1.1,31.3,0,46.2-.9,12.4-11,22.4-23.4,23.4-15.1-.8-31.3,1.1-46.2,0-12.4-.9-22.5-11-23.4-23.4-1.1-14.8.8-31,0-45.9.9-12.3,10.6-22.5,22.9-23.6ZM39.7,25c-7.8,1-13.8,7.2-14.7,14.9.9,14.8-1.3,31.3,0,45.9.7,8.1,7.5,14.6,15.5,15.3,14.6-1,30.9,1.3,45.4,0,8.1-.7,14.6-7.5,15.3-15.5-1-14.6,1.3-30.9,0-45.4-.7-7.9-7.4-14.6-15.3-15.3-14.7-1.3-31.3.9-46.1,0Z"/>
      <path class="st0" d="M77.7,48c18.9,18.6-7.7,48-27.9,31.4-22.7-18.6,7.4-51.6,27.9-31.4ZM61.5,50.5c-16.1,1.8-13.9,26.3,2.4,25.1,16.6-1.2,14.6-27-2.4-25.1Z"/>
      <path class="st0" d="M86.2,34.8c5.5-1.2,7.1,7.2,1.8,8.3-5.6,1.1-7.1-7.2-1.8-8.3Z"/>
    </g>
  </g>
</svg>