<?xml version="1.0" encoding="UTF-8"?>
<svg id="Calque_1" xmlns="http://www.w3.org/2000/svg" version="1.1" viewBox="0 0 126 126">
  <!-- Generator: Adobe Illustrator 29.2.1, SVG Export Plug-In . SVG Version: 2.1.0 Build 116)  -->
  <defs>
    <style>
      .st0 {
        fill: #264f0b;
      }

      .st1 {
        fill: #fefdf8;
      }
    </style>
  </defs>
  <rect class="st1" x="4.9" y="4.9" width="116.3" height="116.3" rx="28.6" ry="28.6"/>
  <path class="st0" d="M52,104.7c-.4,1.3-2.3,1.3-3.4,1.1-8.7-1.6-20.1-12.3-24.4-19.9C2.5,47.9,43.3,6.4,82.4,24.4c35,16.1,33.5,67.4-2.4,80.6-2,.7-5.5,2.2-5.9-1.1-.8-6.6,2.1-14.9-2.8-20.3,11.1-.9,18.8-6.1,20.1-17.6s.1-9.3-2.5-13.6-1.8-2.1-1.8-2.3c0-.5.6-2.1.7-2.8.3-2.9,0-5.9-1.1-8.6-4.4-1-8.8,2.2-12.5,4.3-7.2-1.9-15-2-22.2,0-3.7-2.1-7.9-5-12.3-4.4-1.2.8-1.7,6.2-1.5,7.7s.9,3.2.8,3.9-1.4,1.9-1.9,2.6c-5.3,9-2.6,23.2,7,28.2,3.4,1.7,6.5,2.1,10.1,2.8s.6,0,.4.4-1.3,1.4-1.7,2.2-.6,2.3-1.1,3.4c-2.5,1.2-5.9,1.4-8.5.4-4.7-1.9-5.3-8.5-11.3-8.7-5.2-.1.9,3.4,1.8,4.4,2.3,2.4,2.7,5.8,5,8.1,3.6,3.5,8.3,3.3,12.9,2.7-.4,2.1.5,6.4,0,8.3Z"/>
</svg>