<?xml version="1.0" encoding="UTF-8"?>
<svg id="Calque_1" xmlns="http://www.w3.org/2000/svg" version="1.1" viewBox="0 0 126 126">
  <!-- Generator: Adobe Illustrator 29.2.1, SVG Export Plug-In . SVG Version: 2.1.0 Build 116)  -->
  <defs>
    <style>
      .st0 {
        fill: #264f0b;
      }

      .st1 {
        fill: #fefdf8;
      }
    </style>
  </defs>
  <rect class="st1" x="4.9" y="4.9" width="116.3" height="116.3" rx="28.6" ry="28.6"/>
  <g>
    <path class="st0" d="M101,101.1h-16v-29.7c0-.1-.6-1.7-.8-2-2.9-6-11.4-6-14.3,0s-.8,1.9-.8,2v29.7h-16v-47.9h16v6c5.9-7.4,15.1-9.4,23.2-4.2,3.9,2.5,8.6,8.8,8.6,13.7v32.4Z"/>
    <rect class="st0" x="26.4" y="53.2" width="16" height="47.9"/>
    <path class="st0" d="M33.9,24.9c12.6-.5,13.4,18,1.6,19.1-13.2,1.3-14.3-18.6-1.6-19.1Z"/>
  </g>
</svg>